<svg fill="none" xmlns="http://www.w3.org/2000/svg" viewBox="0 0 291 348"><g clip-path="url(#a)"><path fill="#F0EFEA" d="M1 0h251v348H1z"/><path fill-rule="evenodd" clip-rule="evenodd" d="M186.202 59.501a8.1 8.1 0 0 1 0-11.455L230.598 3.65a8.076 8.076 0 0 1 6.367-3.046 8.076 8.076 0 0 1 6.366 3.046l44.397 44.396a8.1 8.1 0 0 1-11.456 11.455L245.17 28.398v249.099c0 5.556-6.901 8.128-10.537 3.926L23.97 37.999l-6.4-7.476v221.399l30.642-30.643a8.1 8.1 0 0 1 11.455 11.455l-45.07 45.071A8.1 8.1 0 0 1 .85 270.943a9.79 9.79 0 0 1-.078-1.259v-4.885H.77V8.201a7.402 7.402 0 0 1 13.015-4.825L221.97 245.599l7.6 10.4-1.2-12.8V28.789l-30.713 30.712a8.1 8.1 0 0 1-11.455 0Z" fill="#000"/><path d="M183.727 45.571c-4.53 4.53-4.53 11.875 0 16.405 4.53 4.53 11.875 4.53 16.405 0L224.87 37.24v206.124l.015.163.014.149-.103-.141-.082-.112-.09-.104L16.439 1.095A10.902 10.902 0 0 0 8.17-2.701C2.151-2.701-2.73 2.179-2.73 8.2v260.098h.001v1.385c0 .421.018.836.055 1.243-.33 3.332.781 6.793 3.341 9.353 4.53 4.53 11.875 4.53 16.405 0l-2.467-2.467 2.467 2.467 45.07-45.071c4.53-4.53 4.53-11.875 0-16.405-4.53-4.53-11.875-4.53-16.405 0l2.475 2.475-2.475-2.475-24.668 24.668V39.993l.242.282.006.007.006.007 210.663 243.424c5.758 6.654 16.684 2.581 16.684-6.216V36.848l25.127 25.128c4.531 4.53 11.875 4.53 16.406 0 4.53-4.53 4.53-11.875 0-16.405l-2.475 2.475 2.475-2.475-44.271-44.27a11.578 11.578 0 0 0-8.967-4.198 11.578 11.578 0 0 0-8.238 3.398c-.258.258-.5.524-.727.797l-44.273 44.273Z" fill="#000" stroke="#F0EFEA" stroke-width="7"/></g><defs><clipPath id="a"><path fill="#fff" d="M0 0h291v348H0z"/></clipPath></defs></svg>