<svg fill="none" xmlns="http://www.w3.org/2000/svg" viewBox="0 0 818 798"><g clip-path="url(#a)" fill="#73733D"><path fill-rule="evenodd" clip-rule="evenodd" d="M449.202 316.501a8.1 8.1 0 0 1 0-11.455l44.396-44.396c.187-.233.388-.458.604-.674a8.075 8.075 0 0 1 5.763-2.373 8.075 8.075 0 0 1 6.366 3.047l44.397 44.396a8.1 8.1 0 0 1-11.456 11.455l-31.102-31.103v249.099c0 5.556-6.901 8.128-10.537 3.926L286.969 294.999l-6.4-7.476v221.399l30.643-30.643a8.1 8.1 0 0 1 11.455 11.455l-45.07 45.071a8.1 8.1 0 0 1-13.748-6.862 9.849 9.849 0 0 1-.078-1.259v-4.885h-.001V265.201a7.401 7.401 0 0 1 13.015-4.825L484.97 502.599l7.6 10.4-1.2-12.8v-214.41l-30.713 30.712a8.1 8.1 0 0 1-11.455 0Z"/><path d="m802.125 432.261-31.585-3.176c-2.037-.205-3.871-.733-5.501-1.583a11.343 11.343 0 0 1-3.978-3.295c-1.018-1.388-1.775-3.03-2.271-4.924-.457-1.847-.571-3.916-.34-6.209.222-2.207.716-4.13 1.481-5.769.761-1.595 1.755-2.953 2.982-4.074 1.224-1.077 2.638-1.921 4.243-2.532 1.605-.61 3.357-.97 5.255-1.079l.873 9.222c-3.936.333-6.053 1.985-6.352 4.957-.141 1.401.185 2.634.979 3.7.789 1.109 2.138 1.759 4.049 1.951l23.37 2.351 1.358-13.5 7.768.781-2.331 23.179ZM752.085 493.804l.098-.305a10.787 10.787 0 0 1-1.945-1.9 7.624 7.624 0 0 1-1.384-2.392c-.335-.914-.502-1.93-.501-3.05-.013-1.08.189-2.27.606-3.57 1.054-3.291 2.931-5.445 5.632-6.462 2.727-.963 6.123-.793 10.186.509l20.113 6.443-2.89 9.021-19.32-6.19c-1.951-.625-3.565-.761-4.842-.409-1.278.352-2.184 1.361-2.718 3.027a7.685 7.685 0 0 0-.359 2.17 6.622 6.622 0 0 0 .268 2.102 5.159 5.159 0 0 0 1.052 1.749c.465.507 1.083.884 1.855 1.132l20.784 6.658-2.89 9.02-31.998-10.251 2.89-9.02 5.363 1.718ZM723.306 552.785c1.587-2.828 3.37-4.959 5.349-6.392 2.016-1.413 4.289-2.412 6.82-2.998l2.186 7.612c-1.739.395-3.297 1.036-4.677 1.926-1.38.889-2.519 2.133-3.417 3.733-.919 1.637-1.314 2.908-1.185 3.812.166.925.676 1.627 1.532 2.107 1.377.773 2.749.247 4.116-1.579l2.176-2.962c4.515-6.126 9.377-7.727 14.586-4.803 1.414.793 2.551 1.774 3.412 2.942a10.053 10.053 0 0 1 1.73 3.98c.292 1.485.274 3.041-.052 4.668-.31 1.686-.955 3.403-1.937 5.151-.856 1.526-1.72 2.803-2.59 3.831-.855 1.086-1.737 1.961-2.647 2.624a11.315 11.315 0 0 1-2.861 1.697c-.997.468-2.057.876-3.182 1.223l-2.193-7.469a11.803 11.803 0 0 0 3.962-1.96c1.206-.84 2.153-1.874 2.842-3.102.794-1.413 1.135-2.543 1.022-3.389-.112-.846-.54-1.478-1.284-1.896-.782-.438-1.511-.578-2.187-.419-.66.216-1.417.868-2.271 1.954l-2.295 3.042c-4.468 5.956-9.214 7.525-14.237 4.706-1.414-.794-2.549-1.822-3.405-3.086-.857-1.264-1.418-2.704-1.685-4.322-.25-1.559-.178-3.256.215-5.09.373-1.797 1.092-3.644 2.157-5.541ZM687.475 611.925c2.112-2.517 4.354-3.894 6.726-4.132 2.344-.205 4.742.721 7.193 2.778l12.6 10.573 3.044-3.628 5.638 4.731-1.522 1.814c-.823.981-1.156 1.843-1.001 2.586.189.771.724 1.527 1.607 2.267l4.216 3.538-5.471 6.521-6.962-5.842-4.279 5.099-5.638-4.732 4.279-5.098-14.463-12.136-3.949 4.706-5.638-4.731 3.62-4.314ZM636.768 723.797l-18.8 10.828c-3.217 1.852-6.234 2.384-9.052 1.594-2.856-.768-5.146-2.649-6.87-5.644-.852-1.479-1.373-2.853-1.562-4.123-.227-1.248-.199-2.396.083-3.445a6.88 6.88 0 0 1 1.412-2.807 10.884 10.884 0 0 1 2.485-2.096l-.191-.333c-.925.532-1.982.919-3.172 1.162a9.253 9.253 0 0 1-3.755.02c-1.254-.212-2.489-.732-3.704-1.559-1.252-.805-2.357-2.04-3.315-3.704a13.984 13.984 0 0 1-1.715-4.773c-.286-1.608-.273-3.166.04-4.676a11.582 11.582 0 0 1 1.788-4.205c.9-1.257 2.072-2.301 3.514-3.132l20.52-11.818 22.294 38.711Zm-26.636-26.757-9.705 5.59c-1.109.638-1.808 1.435-2.096 2.388-.303 1.012-.136 2.073.503 3.182l1.086 1.885c.639 1.11 1.462 1.768 2.468 1.977.99.266 2.04.08 3.149-.559l9.706-5.59-5.111-8.873Zm9.071 15.75-8.374 4.824c-1.109.638-1.797 1.453-2.064 2.444-.266.99-.08 2.04.559 3.149l.958 1.664c.639 1.109 1.454 1.797 2.444 2.064.991.266 2.041.08 3.15-.559l8.374-4.823-5.047-8.763ZM545.58 723.162l10.492 31.92-8.998 2.958-2.278-6.931-.304.1a9.96 9.96 0 0 1-.012 2.833 8.47 8.47 0 0 1-.842 2.769 7.885 7.885 0 0 1-1.932 2.32c-.799.711-1.827 1.274-3.083 1.687l-1.581.519-2.758-8.39 2.25-.739c2.634-.866 4.487-1.857 5.557-2.973 1.03-1.102 1.239-2.585.626-4.449l-6.136-18.666 8.999-2.958ZM472.154 743.623c2.54-.324 4.855-.212 6.947.338 2.098.592 3.939 1.539 5.525 2.842 1.549 1.351 2.822 3.059 3.817 5.126.953 2.071 1.6 4.441 1.941 7.107.336 2.624.3 5.037-.107 7.24-.401 2.245-1.16 4.213-2.277 5.904-1.16 1.697-2.662 3.072-4.506 4.125-1.838 1.095-4.006 1.803-6.503 2.122-2.751.352-5.159.186-7.225-.496-2.108-.677-3.876-1.72-5.304-3.129-1.47-1.403-2.612-3.107-3.428-5.11-.852-1.956-1.421-4.055-1.708-6.298l-.357-2.794 21.394-2.735-.065-.508c-.282-2.2-1.099-3.881-2.451-5.042-1.348-1.118-3.291-1.514-5.83-1.19-1.947.249-3.486.833-4.616 1.752a19.966 19.966 0 0 0-3.062 3.295l-5.445-5.24c1.26-1.925 3.033-3.528 5.321-4.81 2.246-1.276 4.892-2.109 7.939-2.499Zm3.762 27.908c1.904-.243 3.326-1.07 4.264-2.48.901-1.363 1.219-3.081.954-5.155l-.065-.508-11.681 1.494.073.571c.26 2.031.934 3.601 2.022 4.71 1.051 1.156 2.528 1.612 4.433 1.368ZM388.33 749.134c1.701.138 3.083.785 4.145 1.942 1.019 1.153 1.605 2.634 1.758 4.445l.383.031c.686-2.128 1.948-3.695 3.784-4.701 1.834-.965 4.026-1.343 6.578-1.136 3.359.273 5.86 1.375 7.501 3.306s2.343 4.364 2.104 7.298c-.286 3.53-1.774 6.041-4.464 7.535-2.736 1.533-6.315 2.12-10.738 1.761l-5.294-.429-.171 2.105c-.131 1.616.19 2.926.965 3.931.771 1.047 2.156 1.652 4.155 1.814 1.871.152 3.392-.132 4.563-.85 1.172-.718 2.16-1.558 2.966-2.52l5.21 5.431c-1.523 1.889-3.35 3.303-5.481 4.243-2.177.979-5.031 1.325-8.561 1.038-4.763-.386-8.25-1.718-10.463-3.995-2.212-2.277-3.156-5.415-2.831-9.412l1.191-14.672-3.126-.254.595-7.335 5.231.424Zm12.606 6.867c-1.574-.128-2.941.103-4.102.694-1.203.587-1.867 1.646-1.991 3.177l-.321 3.955 4.593.373c3.699.3 5.651-.804 5.855-3.313l.078-.957c.1-1.233-.209-2.179-.926-2.836-.721-.615-1.783-.98-3.186-1.093ZM328.777 740.846c3.161.895 5.336 2.376 6.524 4.442 1.148 2.054 1.285 4.621.413 7.7l-4.482 15.825 4.557 1.291-2.006 7.081-2.278-.645c-1.232-.349-2.155-.3-2.769.147-.626.488-1.096 1.286-1.41 2.394l-1.5 5.296-8.19-2.32 2.477-8.744-6.404-1.814 2.005-7.081 6.404 1.814 5.146-18.165-5.912-1.675 2.006-7.081 5.419 1.535ZM259.507 769.634l-8.441-4.297 8.825-17.339-.342-.174c-1.326 1.288-2.945 2.164-4.856 2.627-1.912.463-4.046.095-6.404-1.105-3.08-1.568-4.877-3.775-5.39-6.622-.552-2.866.139-6.2 2.075-10.003l9.551-18.765 8.441 4.297-9.202 18.081c-.987 1.939-1.409 3.52-1.265 4.742.124 1.26.966 2.287 2.525 3.08a7.88 7.88 0 0 0 2.142.731 5.577 5.577 0 0 0 2.174.102 4.915 4.915 0 0 0 1.924-.816c.575-.378 1.046-.928 1.414-1.65l9.871-19.393 8.441 4.297-21.483 42.207ZM204.803 683.869c1.991 1.61 3.511 3.36 4.56 5.251 1.023 1.925 1.613 3.91 1.768 5.957.096 2.052-.258 4.153-1.062 6.301-.837 2.121-2.101 4.227-3.791 6.317-1.663 2.057-3.431 3.701-5.303 4.93-1.899 1.263-3.846 2.076-5.84 2.439-2.028.336-4.059.202-6.095-.402-2.063-.57-4.073-1.647-6.03-3.23-2.157-1.743-3.703-3.597-4.639-5.561-.969-1.991-1.439-3.989-1.408-5.995-.003-2.032.437-4.036 1.32-6.01.824-1.968 1.946-3.831 3.368-5.59l1.77-2.19 16.772 13.561.322-.398c1.395-1.725 2.044-3.477 1.946-5.257-.124-1.747-1.181-3.425-3.172-5.034-1.526-1.234-3.012-1.942-4.457-2.122a19.95 19.95 0 0 0-4.498.066l.019-7.556c2.261-.422 4.646-.249 7.154.517 2.475.739 4.907 2.074 7.296 4.006Zm-17.557 22.018c1.493 1.207 3.074 1.662 4.741 1.364 1.608-.291 3.068-1.25 4.383-2.876l.322-.398-9.157-7.404-.362.448c-1.288 1.592-1.956 3.165-2.004 4.717-.108 1.559.584 2.942 2.077 4.149ZM84.243 556.21c.686 1.656 1.069 3.137 1.148 4.443.08 1.307-.07 2.453-.446 3.44a7.453 7.453 0 0 1-1.822 2.625c-.815.708-1.775 1.29-2.879 1.747l-2.128.882c-1.104.457-2.194.724-3.27.8a6.876 6.876 0 0 1-3.086-.592c-1.004-.416-1.94-1.114-2.807-2.094-.868-.98-1.644-2.297-2.33-3.953-.686-1.655-1.068-3.136-1.148-4.443-.079-1.306.09-2.461.505-3.465a6.28 6.28 0 0 1 1.787-2.541c.8-.747 1.751-1.349 2.855-1.806l2.128-.881c1.104-.458 2.203-.705 3.296-.742a6.792 6.792 0 0 1 3.12.509c.964.432 1.88 1.138 2.747 2.118.868.98 1.645 2.297 2.33 3.953ZM15.552 364.088l31.56 3.42c2.036.221 3.865.762 5.488 1.625a11.36 11.36 0 0 1 3.953 3.325c1.008 1.397 1.752 3.044 2.233 4.941.443 1.851.54 3.921.292 6.212-.239 2.206-.747 4.125-1.525 5.757-.773 1.59-1.777 2.941-3.014 4.051-1.231 1.068-2.652 1.901-4.262 2.5-1.61.598-3.364.944-5.262 1.039l-.803-9.229c3.938-.302 6.068-1.938 6.39-4.908.152-1.4-.165-2.635-.95-3.708-.78-1.114-2.125-1.775-4.034-1.982l-23.351-2.53-1.462 13.489-7.762-.841 2.51-23.161ZM65.96 303.174l-.1.304c.717.55 1.361 1.188 1.93 1.914a7.647 7.647 0 0 1 1.367 2.403c.327.916.487 1.934.478 3.054.004 1.079-.207 2.268-.633 3.565-1.08 3.283-2.973 5.423-5.68 6.419-2.736.942-6.13.747-10.183-.585l-20.064-6.596 2.958-8.998 19.273 6.336c1.946.639 3.559.788 4.84.445 1.28-.343 2.193-1.345 2.74-3.007a7.674 7.674 0 0 0 .375-2.167 6.633 6.633 0 0 0-.252-2.104 5.14 5.14 0 0 0-1.04-1.756c-.46-.511-1.076-.893-1.846-1.146l-20.732-6.815 2.958-8.998 31.92 10.492-2.959 8.998-5.35-1.758ZM95.435 243.695c-1.618 2.81-3.425 4.921-5.42 6.332-2.031 1.391-4.316 2.365-6.852 2.922l-2.102-7.636c1.742-.375 3.308-.999 4.698-1.873 1.39-.874 2.542-2.106 3.458-3.695.937-1.627 1.346-2.893 1.227-3.799-.156-.926-.659-1.634-1.509-2.124-1.368-.788-2.746-.277-4.133 1.534l-2.209 2.937c-4.582 6.076-9.462 7.623-14.638 4.642-1.405-.809-2.531-1.802-3.38-2.98a10.051 10.051 0 0 1-1.685-3.999c-.275-1.488-.24-3.044.103-4.667.329-1.682.994-3.392 1.994-5.129.874-1.516 1.751-2.784 2.633-3.802.866-1.077 1.758-1.941 2.676-2.595a11.305 11.305 0 0 1 2.88-1.665 24.46 24.46 0 0 1 3.195-1.188l2.11 7.493a11.82 11.82 0 0 0-3.984 1.916c-1.215.827-2.173 1.85-2.876 3.07-.81 1.405-1.162 2.531-1.06 3.378.103.847.525 1.484 1.264 1.91.777.447 1.504.595 2.182.444.662-.21 1.426-.853 2.292-1.93l2.329-3.016c4.534-5.907 9.297-7.423 14.288-4.548 1.405.809 2.529 1.85 3.371 3.123.843 1.273 1.388 2.72 1.637 4.34.232 1.562.142 3.258-.272 5.088-.392 1.792-1.131 3.632-2.217 5.517ZM130.717 186.223c-2.13 2.501-4.382 3.862-6.755 4.082-2.346.188-4.737-.755-7.173-2.83l-12.522-10.664-3.071 3.606-5.603-4.772 1.535-1.803c.83-.975 1.17-1.834 1.019-2.579-.183-.772-.713-1.532-1.59-2.279l-4.19-3.568 5.518-6.481 6.919 5.893 4.316-5.068 5.603 4.772-4.315 5.068 14.374 12.241 3.983-4.678 5.604 4.772-3.652 4.288ZM183.358 73.443l18.92-10.62c3.236-1.816 6.26-2.314 9.069-1.493 2.846.8 5.115 2.706 6.807 5.72.835 1.488 1.341 2.868 1.516 4.14.213 1.25.172 2.398-.122 3.444a6.867 6.867 0 0 1-1.442 2.791c-.689.778-1.525 1.468-2.509 2.069l.188.334c.93-.522 1.992-.897 3.184-1.126a9.251 9.251 0 0 1 3.755.02c1.253.227 2.482.76 3.687 1.6 1.243.82 2.334 2.067 3.274 3.741a13.996 13.996 0 0 1 1.662 4.792c.268 1.61.238 3.169-.092 4.675-.329 1.506-.94 2.9-1.834 4.185-.914 1.247-2.097 2.278-3.548 3.093l-20.65 11.59-21.865-38.955Zm26.339 27.05 9.766-5.482c1.117-.626 1.824-1.415 2.122-2.365.315-1.008.159-2.07-.467-3.187l-1.066-1.898c-.626-1.116-1.441-1.784-2.445-2.003-.988-.277-2.039-.103-3.156.524l-9.766 5.482 5.012 8.929Zm-8.897-15.85 8.428-4.73c1.116-.626 1.813-1.433 2.09-2.421.278-.988.103-2.04-.524-3.156l-.939-1.674c-.627-1.116-1.434-1.813-2.421-2.09-.988-.278-2.04-.103-3.156.523l-8.427 4.73 4.949 8.818ZM273.545 75.296l-10.251-31.998 9.02-2.89 2.226 6.948.305-.098a9.961 9.961 0 0 1 .033-2.833c.133-.983.42-1.904.862-2.763a7.897 7.897 0 0 1 1.95-2.305c.804-.705 1.836-1.26 3.096-1.663l1.585-.508 2.694 8.41-2.255.723c-2.641.846-4.501 1.823-5.58 2.93-1.038 1.095-1.258 2.576-.659 4.445l5.995 18.712-9.021 2.89ZM347.837 55.076c-2.543.295-4.857.156-6.943-.418-2.09-.616-3.921-1.585-5.492-2.906-1.533-1.368-2.786-3.091-3.757-5.169-.929-2.082-1.549-4.459-1.859-7.129-.305-2.628-.242-5.04.19-7.238.427-2.24 1.209-4.2 2.346-5.878 1.179-1.683 2.696-3.04 4.552-4.073 1.851-1.074 4.027-1.756 6.528-2.046 2.754-.32 5.161-.127 7.219.579 2.1.7 3.856 1.764 5.267 3.19 1.453 1.42 2.576 3.136 3.368 5.15.83 1.964 1.375 4.07 1.636 6.317l.325 2.797-21.424 2.488.059.509c.256 2.203 1.054 3.893 2.393 5.07 1.335 1.133 3.273 1.552 5.816 1.257 1.95-.227 3.495-.793 4.635-1.698a19.98 19.98 0 0 0 3.101-3.26l5.383 5.302c-1.281 1.91-3.073 3.493-5.376 4.748-2.26 1.25-4.916 2.053-7.967 2.408Zm-3.44-27.95c-1.907.221-3.338 1.032-4.292 2.431-.917 1.353-1.255 3.067-1.013 5.144l.059.508 11.697-1.358-.066-.572c-.237-2.035-.892-3.612-1.967-4.733-1.038-1.168-2.511-1.642-4.418-1.42ZM431.499 50.205c-1.7-.158-3.074-.82-4.122-1.99-1.006-1.164-1.575-2.652-1.707-4.464l-.382-.036c-.711 2.12-1.991 3.672-3.839 4.657-1.844.943-4.041 1.297-6.59 1.06-3.356-.312-5.844-1.442-7.463-3.392-1.618-1.95-2.292-4.39-2.019-7.322.327-3.526 1.844-6.02 4.551-7.484 2.753-1.5 6.339-2.047 10.757-1.637l5.289.491.195-2.103c.15-1.614-.156-2.928-.919-3.941-.759-1.056-2.137-1.677-4.134-1.862-1.869-.174-3.394.092-4.573.796-1.18.705-2.178 1.534-2.995 2.486l-5.146-5.49c1.545-1.871 3.388-3.264 5.53-4.18 2.188-.954 5.045-1.267 8.571-.94 4.758.442 8.23 1.814 10.416 4.117 2.186 2.302 3.094 5.45 2.723 9.444l-1.36 14.657 3.122.29-.68 7.328-5.225-.485Zm-12.526-7.011c1.572.145 2.942-.07 4.109-.648 1.211-.573 1.887-1.624 2.029-3.154l.366-3.95-4.588-.426c-3.696-.343-5.66.738-5.893 3.245l-.089.956c-.114 1.232.183 2.18.893 2.846.713.624 1.771 1 3.173 1.13ZM489.771 58.578c-3.154-.919-5.318-2.416-6.491-4.491-1.132-2.063-1.25-4.63-.355-7.703l4.602-15.791-4.546-1.325 2.059-7.066 2.273.662c1.229.358 2.152.316 2.77-.126.63-.483 1.106-1.277 1.428-2.383l1.54-5.285 8.172 2.382-2.543 8.725 6.391 1.863-2.06 7.066-6.39-1.863-5.283 18.126 5.899 1.72-2.059 7.065-5.407-1.576ZM559.343 30.038l8.409 4.359-8.954 17.273.341.177c1.336-1.279 2.961-2.142 4.876-2.591 1.914-.45 4.046-.065 6.395 1.152 3.068 1.59 4.849 3.81 5.341 6.661.531 2.87-.185 6.2-2.149 9.988l-9.69 18.694-8.409-4.36 9.336-18.011c1.002-1.932 1.435-3.51 1.3-4.733-.115-1.261-.949-2.294-2.502-3.1a7.902 7.902 0 0 0-2.136-.746 5.578 5.578 0 0 0-2.174-.118 4.903 4.903 0 0 0-1.93.802c-.578.374-1.053.92-1.426 1.64l-10.014 19.319-8.409-4.36 21.795-42.046ZM614.179 116.442c-1.979-1.624-3.486-3.386-4.522-5.284-1.009-1.932-1.584-3.922-1.725-5.97-.081-2.053.289-4.151 1.109-6.293.852-2.115 2.131-4.212 3.837-6.29 1.678-2.044 3.457-3.675 5.339-4.89 1.908-1.25 3.86-2.048 5.857-2.397 2.03-.32 4.061-.172 6.092.446 2.059.586 4.061 1.677 6.007 3.274 2.143 1.76 3.676 3.624 4.598 5.595.955 1.998 1.409 4 1.364 6.005-.012 2.032-.467 4.032-1.364 6-.838 1.962-1.974 3.817-3.408 5.565l-1.787 2.177-16.672-13.683-.325.396c-1.407 1.715-2.069 3.463-1.984 5.243.111 1.748 1.156 3.433 3.135 5.057 1.517 1.245 2.998 1.964 4.441 2.155 1.471.158 2.971.147 4.499-.034l-.075 7.556c-2.264.405-4.647.215-7.149-.569-2.47-.757-4.892-2.11-7.267-4.059Zm17.717-21.89c-1.485-1.218-3.062-1.684-4.731-1.398-1.61.28-3.077 1.227-4.404 2.844l-.325.395 9.103 7.471.366-.445c1.299-1.583 1.978-3.151 2.038-4.703.119-1.558-.563-2.946-2.047-4.164ZM734.216 245.123c-.673-1.661-1.045-3.145-1.114-4.452-.07-1.307.087-2.452.471-3.437a7.453 7.453 0 0 1 1.842-2.611c.82-.701 1.784-1.276 2.891-1.725l2.136-.866c1.107-.449 2.199-.707 3.276-.776a6.878 6.878 0 0 1 3.081.616c1 .423 1.931 1.128 2.791 2.114.86.986 1.627 2.31 2.3 3.971.674 1.66 1.045 3.144 1.115 4.451.069 1.307-.108 2.461-.531 3.461a6.284 6.284 0 0 1-1.806 2.528c-.805.741-1.761 1.335-2.868 1.784l-2.135.866c-1.107.449-2.207.688-3.301.717a6.796 6.796 0 0 1-3.116-.532c-.961-.44-1.871-1.152-2.732-2.139-.86-.986-1.627-2.31-2.3-3.97Z"/></g><defs><clipPath id="a"><path fill="#fff" d="M0 0h818v798H0z"/></clipPath></defs></svg>