<svg width="2890" height="348" viewBox="0 0 2890 348" fill="none" xmlns="http://www.w3.org/2000/svg">
<path d="M301.162 176.538C301.162 165.871 303.162 155.738 307.162 146.138C311.429 136.538 317.029 128.271 323.962 121.338C331.162 114.138 339.429 108.538 348.762 104.538C358.362 100.271 368.629 98.1377 379.562 98.1377C390.495 98.1377 400.762 100.271 410.362 104.538C419.962 108.538 428.362 114.138 435.562 121.338C442.762 128.271 448.362 136.538 452.362 146.138C456.629 155.738 458.762 165.871 458.762 176.538C458.762 187.471 456.629 197.738 452.362 207.338C448.362 216.671 442.762 224.804 435.562 231.738C428.362 238.671 419.962 244.271 410.362 248.538C400.762 252.538 390.495 254.538 379.562 254.538C368.629 254.538 358.362 252.538 348.762 248.538C339.429 244.271 331.162 238.671 323.962 231.738C317.029 224.804 311.429 216.671 307.162 207.338C303.162 197.738 301.162 187.471 301.162 176.538ZM317.562 176.538C317.562 185.071 319.162 193.071 322.362 200.538C325.562 208.004 329.962 214.538 335.562 220.138C341.162 225.738 347.695 230.138 355.162 233.338C362.629 236.538 370.629 238.138 379.162 238.138C387.695 238.138 395.695 236.538 403.162 233.338C410.895 230.138 417.562 225.738 423.162 220.138C428.762 214.538 433.162 208.004 436.362 200.538C439.562 193.071 441.162 185.071 441.162 176.538C441.162 168.004 439.562 160.004 436.362 152.538C433.162 145.071 428.762 138.538 423.162 132.938C417.562 127.338 410.895 122.938 403.162 119.738C395.695 116.271 387.695 114.538 379.162 114.538C370.629 114.538 362.629 116.271 355.162 119.738C347.695 122.938 341.162 127.338 335.562 132.938C329.962 138.538 325.562 145.071 322.362 152.538C319.162 160.004 317.562 168.004 317.562 176.538Z" fill="black"/>
<path d="M486.7 243.738C486.7 239.319 490.281 235.738 494.7 235.738H517.9V117.738H497.1C492.681 117.738 489.1 114.156 489.1 109.738C489.1 105.319 492.681 101.738 497.1 101.738H521.781C527.193 101.738 531.623 106.043 531.777 111.452L531.9 115.738C532.166 120.271 532.433 124.404 532.7 128.138C532.966 131.871 533.1 136.004 533.1 140.538C539.233 127.471 548.166 117.338 559.9 110.138C570.824 103.34 581.859 99.5263 593.005 98.6961C594.769 98.5647 596.188 100.063 596.059 101.828L595.757 105.954C595.383 111.06 591.195 114.979 586.132 115.738C580.902 116.522 575.891 117.855 571.1 119.738C563.9 122.404 557.5 126.138 551.9 130.938C546.566 135.738 542.3 141.471 539.1 148.138C535.9 154.804 534.3 162.004 534.3 169.738V235.738H555.9C560.318 235.738 563.9 239.319 563.9 243.738C563.9 248.156 560.318 251.738 555.9 251.738H494.7C490.281 251.738 486.7 248.156 486.7 243.738Z" fill="black"/>
<path d="M659 12.2459C659 7.60675 662.76 3.84595 667.4 3.84595C672.039 3.84595 675.8 7.60676 675.8 12.246V101.738H713.6C718.128 101.738 721.8 105.409 721.8 109.938C721.8 114.466 718.128 118.138 713.6 118.138H675.8V235.738H700.6C705.018 235.738 708.6 239.319 708.6 243.738C708.6 248.156 705.018 251.738 700.6 251.738H669C663.477 251.738 659 247.261 659 241.738V118.138H632.4C627.871 118.138 624.2 114.466 624.2 109.938C624.2 105.409 627.871 101.738 632.4 101.738H659V12.2459Z" fill="black"/>
<path d="M862.781 243.738C862.781 239.319 866.363 235.738 870.781 235.738H893.981V147.738C893.448 139.204 890.247 131.738 884.381 125.338C878.781 118.938 870.381 115.471 859.181 114.938C851.181 114.938 843.448 116.404 835.981 119.338C828.514 122.004 821.848 125.738 815.981 130.538C810.381 135.338 805.848 141.071 802.381 147.738C799.181 154.404 797.581 161.738 797.581 169.738V235.738H819.201C823.608 235.738 827.181 239.31 827.181 243.717C827.181 248.14 823.583 251.719 819.16 251.696L756.899 251.375C752.851 251.354 749.581 248.067 749.581 244.019C749.581 240.065 752.706 236.819 756.658 236.669L781.181 235.738V19.721H768.407C763.988 19.721 760.407 16.1392 760.407 11.721C760.407 7.30267 763.988 3.72095 768.407 3.72095H797.581V122.538L796.381 140.538C801.981 127.738 810.514 117.738 821.981 110.538C833.714 103.071 847.181 99.0711 862.381 98.5377C877.048 98.5377 888.648 102.671 897.181 110.938C905.714 119.204 910.247 130.004 910.781 143.338V235.738H931.981C936.399 235.738 939.981 239.319 939.981 243.738C939.981 248.156 936.399 251.738 931.981 251.738H870.781C866.363 251.738 862.781 248.156 862.781 243.738Z" fill="black"/>
<path d="M967.949 243.738C967.949 239.319 971.531 235.738 975.949 235.738H997.549V23.596V7.59583L1014.35 7.596V116.938C1014.08 120.138 1013.82 123.471 1013.55 126.938C1013.28 130.138 1013.02 133.338 1012.75 136.538C1014.62 131.738 1017.42 127.071 1021.15 122.538C1025.15 118.004 1029.95 114.004 1035.55 110.538C1041.15 106.804 1047.42 103.871 1054.35 101.738C1061.28 99.6043 1068.62 98.5376 1076.35 98.5376C1087.28 98.5376 1097.55 100.671 1107.15 104.938C1116.75 108.938 1125.02 114.538 1131.95 121.738C1139.15 128.671 1144.75 136.938 1148.75 146.538C1153.02 155.871 1155.15 165.871 1155.15 176.538C1155.15 187.471 1153.02 197.738 1148.75 207.338C1144.75 216.671 1139.15 224.804 1131.95 231.738C1125.02 238.671 1116.75 244.271 1107.15 248.538C1097.55 252.538 1087.28 254.538 1076.35 254.538C1068.35 254.538 1060.75 253.471 1053.55 251.338C1046.62 249.204 1040.35 246.404 1034.75 242.938C1029.42 239.471 1024.75 235.471 1020.75 230.938C1017.02 226.404 1014.22 221.871 1012.35 217.338C1012.35 220.271 1012.35 223.338 1012.35 226.538C1012.62 229.471 1012.75 232.538 1012.75 235.738V248.738C1012.75 250.394 1011.41 251.738 1009.75 251.738H975.949C971.531 251.738 967.949 248.156 967.949 243.738ZM1138.35 176.538C1138.35 168.004 1136.75 160.004 1133.55 152.538C1130.35 144.804 1125.95 138.138 1120.35 132.538C1115.02 126.938 1108.48 122.538 1100.75 119.338C1093.28 116.138 1085.15 114.538 1076.35 114.538C1067.55 114.538 1059.42 116.138 1051.95 119.338C1044.48 122.538 1037.95 126.938 1032.35 132.538C1026.75 138.138 1022.35 144.804 1019.15 152.538C1015.95 160.004 1014.35 168.004 1014.35 176.538C1014.35 185.071 1015.95 193.071 1019.15 200.538C1022.35 208.004 1026.75 214.538 1032.35 220.138C1037.95 225.738 1044.48 230.138 1051.95 233.338C1059.42 236.538 1067.55 238.138 1076.35 238.138C1085.15 238.138 1093.28 236.538 1100.75 233.338C1108.48 230.138 1115.02 225.738 1120.35 220.138C1125.95 214.538 1130.35 208.004 1133.55 200.538C1136.75 193.071 1138.35 185.071 1138.35 176.538Z" fill="black"/>
<path d="M1181.58 176.538C1181.58 165.871 1183.58 155.738 1187.58 146.138C1191.85 136.538 1197.45 128.271 1204.38 121.338C1211.58 114.138 1219.85 108.538 1229.18 104.538C1238.78 100.271 1249.05 98.1376 1259.98 98.1376C1270.92 98.1376 1281.18 100.271 1290.78 104.538C1300.38 108.538 1308.78 114.138 1315.98 121.338C1323.18 128.271 1328.78 136.538 1332.78 146.138C1337.05 155.738 1339.18 165.871 1339.18 176.538C1339.18 187.471 1337.05 197.738 1332.78 207.338C1328.78 216.671 1323.18 224.804 1315.98 231.738C1308.78 238.671 1300.38 244.271 1290.78 248.538C1281.18 252.538 1270.92 254.538 1259.98 254.538C1249.05 254.538 1238.78 252.538 1229.18 248.538C1219.85 244.271 1211.58 238.671 1204.38 231.738C1197.45 224.804 1191.85 216.671 1187.58 207.338C1183.58 197.738 1181.58 187.471 1181.58 176.538ZM1197.98 176.538C1197.98 185.071 1199.58 193.071 1202.78 200.538C1205.98 208.004 1210.38 214.538 1215.98 220.138C1221.58 225.738 1228.12 230.138 1235.58 233.338C1243.05 236.538 1251.05 238.138 1259.58 238.138C1268.12 238.138 1276.12 236.538 1283.58 233.338C1291.32 230.138 1297.98 225.738 1303.58 220.138C1309.18 214.538 1313.58 208.004 1316.78 200.538C1319.98 193.071 1321.58 185.071 1321.58 176.538C1321.58 168.004 1319.98 160.004 1316.78 152.538C1313.58 145.071 1309.18 138.538 1303.58 132.938C1297.98 127.338 1291.32 122.938 1283.58 119.738C1276.12 116.271 1268.12 114.538 1259.58 114.538C1251.05 114.538 1243.05 116.271 1235.58 119.738C1228.12 122.938 1221.58 127.338 1215.98 132.938C1210.38 138.538 1205.98 145.071 1202.78 152.538C1199.58 160.004 1197.98 168.004 1197.98 176.538Z" fill="black"/>
<path d="M1358.12 109.738C1358.12 105.319 1361.7 101.738 1366.12 101.738H1394.12C1399.64 101.738 1404.12 106.215 1404.12 111.738V205.738C1404.65 214.271 1407.72 221.738 1413.32 228.138C1419.19 234.538 1427.72 238.004 1438.92 238.538C1447.19 238.538 1455.05 237.204 1462.52 234.538C1469.99 231.604 1476.52 227.738 1482.12 222.938C1487.72 218.138 1492.12 212.404 1495.32 205.738C1498.79 199.071 1500.52 191.738 1500.52 183.738V117.738H1478.92C1474.5 117.738 1470.92 114.156 1470.92 109.738C1470.92 105.319 1474.5 101.738 1478.92 101.738H1507.32C1512.84 101.738 1517.32 106.215 1517.32 111.738V237.338H1538.52C1542.5 237.338 1545.72 240.561 1545.72 244.538C1545.72 248.514 1542.5 251.738 1538.52 251.738H1512.14C1506.77 251.738 1502.36 247.491 1502.15 242.122L1501.72 230.938V212.938C1496.39 225.738 1487.72 236.004 1475.72 243.738C1463.99 251.204 1450.79 254.938 1436.12 254.938C1421.45 254.938 1409.85 250.804 1401.32 242.538C1392.79 234.271 1388.25 223.471 1387.72 210.138V117.738H1366.12C1361.7 117.738 1358.12 114.156 1358.12 109.738Z" fill="black"/>
<path d="M1686.55 243.738C1686.55 239.319 1690.13 235.738 1694.55 235.738H1717.75V147.738C1717.21 139.204 1714.01 131.738 1708.15 125.338C1702.55 118.938 1694.15 115.471 1682.95 114.938C1674.95 114.938 1667.21 116.404 1659.75 119.338C1652.28 122.004 1645.61 125.738 1639.75 130.538C1634.15 135.338 1629.61 141.071 1626.15 147.738C1622.95 154.404 1621.35 161.738 1621.35 169.738V235.738H1642.95C1647.36 235.738 1650.95 239.319 1650.95 243.738C1650.95 248.156 1647.36 251.738 1642.95 251.738H1581.75C1577.33 251.738 1573.75 248.156 1573.75 243.738C1573.75 239.319 1577.33 235.738 1581.75 235.738H1604.95V117.738H1584.15C1579.73 117.738 1576.15 114.156 1576.15 109.738C1576.15 105.319 1579.73 101.738 1584.15 101.738H1608.83C1614.24 101.738 1618.67 106.043 1618.82 111.452L1618.95 115.738C1619.21 120.271 1619.48 124.404 1619.75 128.138C1620.01 131.871 1620.15 136.004 1620.15 140.538C1625.48 128.004 1634.01 117.871 1645.75 110.138C1657.75 102.404 1671.21 98.5376 1686.15 98.5376C1700.81 98.5376 1712.41 102.671 1720.95 110.938C1729.48 119.204 1734.01 130.004 1734.55 143.338V235.738H1755.75C1760.16 235.738 1763.75 239.319 1763.75 243.738C1763.75 248.156 1760.16 251.738 1755.75 251.738H1694.55C1690.13 251.738 1686.55 248.156 1686.55 243.738Z" fill="black"/>
<path d="M1923.11 235.738C1923.11 232.538 1923.11 229.471 1923.11 226.538C1923.38 223.338 1923.51 220.271 1923.51 217.338C1921.65 221.871 1918.71 226.404 1914.71 230.938C1910.98 235.471 1906.31 239.471 1900.71 242.938C1895.38 246.404 1889.11 249.204 1881.91 251.338C1874.98 253.471 1867.51 254.538 1859.51 254.538C1848.58 254.538 1838.31 252.538 1828.71 248.538C1819.11 244.271 1810.71 238.671 1803.51 231.738C1796.58 224.804 1790.98 216.671 1786.71 207.338C1782.71 197.738 1780.71 187.471 1780.71 176.538C1780.71 165.871 1782.71 155.871 1786.71 146.538C1790.98 136.938 1796.58 128.671 1803.51 121.738C1810.71 114.538 1819.11 108.938 1828.71 104.938C1838.31 100.671 1848.58 98.5376 1859.51 98.5376C1867.25 98.5376 1874.45 99.6043 1881.11 101.738C1888.05 103.871 1894.31 106.804 1899.91 110.538C1905.51 114.004 1910.31 118.004 1914.31 122.538C1918.31 127.071 1921.25 131.738 1923.11 136.538C1922.85 130.938 1922.58 125.338 1922.31 119.738C1922.05 114.138 1921.78 108.538 1921.51 102.938V17.5957V3.84668H1928.31C1933.84 3.84668 1938.31 8.32383 1938.31 13.8467V235.738H1959.91C1964.33 235.738 1967.91 239.319 1967.91 243.738C1967.91 248.156 1964.33 251.738 1959.91 251.738H1926.11C1924.46 251.738 1923.11 250.394 1923.11 248.738V235.738ZM1797.51 176.538C1797.51 185.071 1799.11 193.071 1802.31 200.538C1805.51 208.004 1809.78 214.538 1815.11 220.138C1820.71 225.738 1827.25 230.138 1834.71 233.338C1842.45 236.538 1850.71 238.138 1859.51 238.138C1868.31 238.138 1876.45 236.538 1883.91 233.338C1891.38 230.138 1897.91 225.738 1903.51 220.138C1909.11 214.538 1913.51 208.004 1916.71 200.538C1919.91 193.071 1921.51 185.071 1921.51 176.538C1921.51 168.004 1919.91 160.004 1916.71 152.538C1913.51 144.804 1909.11 138.138 1903.51 132.538C1897.91 126.938 1891.38 122.538 1883.91 119.338C1876.45 116.138 1868.31 114.538 1859.51 114.538C1850.71 114.538 1842.45 116.138 1834.71 119.338C1827.25 122.538 1820.71 126.938 1815.11 132.538C1809.78 138.138 1805.51 144.804 1802.31 152.538C1799.11 160.004 1797.51 168.004 1797.51 176.538Z" fill="black"/>
<path d="M980.25 10.8761C980.25 6.96731 983.419 3.79858 987.328 3.79858H1011.38C1013.03 3.79858 1014.38 5.14173 1014.38 6.79858V14.9537C1014.38 16.6105 1013.03 17.9537 1011.38 17.9537H987.328C983.419 17.9537 980.25 14.785 980.25 10.8761Z" fill="black"/>
<path d="M1904.25 10.8761C1904.25 6.96731 1907.42 3.79858 1911.33 3.79858H1935.38C1937.03 3.79858 1938.38 5.14173 1938.38 6.79858V14.9537C1938.38 16.6105 1937.03 17.9537 1935.38 17.9537H1911.33C1907.42 17.9537 1904.25 14.785 1904.25 10.8761Z" fill="black"/>
<path d="M2102.96 331.132H2136.96C2143.9 317.265 2150.83 303.265 2157.76 289.132C2164.7 275.265 2171.63 261.532 2178.56 247.932C2167.1 225.265 2155.76 202.865 2144.56 180.732C2133.36 158.332 2122.16 135.799 2110.96 113.132H2080.16V97.132H2154.16V113.132H2128.96C2138.83 133.132 2148.7 152.999 2158.56 172.732C2168.7 192.199 2178.3 211.932 2187.36 231.932C2195.9 212.732 2205.23 193.132 2215.36 173.132C2225.5 153.132 2235.63 133.132 2245.76 113.132H2222.56V97.132H2292.56V113.132H2263.36C2244.96 149.665 2226.83 186.065 2208.96 222.332C2191.1 258.332 2172.96 294.599 2154.56 331.132H2180.16V347.132H2102.96V331.132Z" fill="black"/>
<path d="M2300.8 171.932C2300.8 161.265 2302.8 151.132 2306.8 141.532C2311.06 131.932 2316.66 123.665 2323.6 116.732C2330.8 109.532 2339.06 103.932 2348.4 99.932C2358 95.6653 2368.26 93.532 2379.2 93.532C2390.13 93.532 2400.4 95.6653 2410 99.932C2419.6 103.932 2428 109.532 2435.2 116.732C2442.4 123.665 2448 131.932 2452 141.532C2456.26 151.132 2458.4 161.265 2458.4 171.932C2458.4 182.865 2456.26 193.132 2452 202.732C2448 212.065 2442.4 220.199 2435.2 227.132C2428 234.065 2419.6 239.665 2410 243.932C2400.4 247.932 2390.13 249.932 2379.2 249.932C2368.26 249.932 2358 247.932 2348.4 243.932C2339.06 239.665 2330.8 234.065 2323.6 227.132C2316.66 220.199 2311.06 212.065 2306.8 202.732C2302.8 193.132 2300.8 182.865 2300.8 171.932ZM2317.2 171.932C2317.2 180.465 2318.8 188.465 2322 195.932C2325.2 203.399 2329.6 209.932 2335.2 215.532C2340.8 221.132 2347.33 225.532 2354.8 228.732C2362.26 231.932 2370.26 233.532 2378.8 233.532C2387.33 233.532 2395.33 231.932 2402.8 228.732C2410.53 225.532 2417.2 221.132 2422.8 215.532C2428.4 209.932 2432.8 203.399 2436 195.932C2439.2 188.465 2440.8 180.465 2440.8 171.932C2440.8 163.399 2439.2 155.399 2436 147.932C2432.8 140.465 2428.4 133.932 2422.8 128.332C2417.2 122.732 2410.53 118.332 2402.8 115.132C2395.33 111.665 2387.33 109.932 2378.8 109.932C2370.26 109.932 2362.26 111.665 2354.8 115.132C2347.33 118.332 2340.8 122.732 2335.2 128.332C2329.6 133.932 2325.2 140.465 2322 147.932C2318.8 155.399 2317.2 163.399 2317.2 171.932Z" fill="black"/>
<path d="M2630.33 97.132H2673.93V113.132H2643.93V261.132C2643.93 274.199 2641.93 285.932 2637.93 296.332C2633.93 306.999 2628.47 316.065 2621.53 323.532C2614.6 330.999 2606.47 336.732 2597.13 340.732C2588.07 344.732 2578.2 346.865 2567.53 347.132C2556.33 346.865 2545 344.732 2533.53 340.732C2522.33 336.732 2513.13 330.865 2505.93 323.132L2517.93 310.732C2523.8 317.132 2531.27 321.932 2540.33 325.132C2549.4 328.332 2558.33 329.932 2567.13 329.932C2575.4 329.932 2583.13 328.199 2590.33 324.732C2597.8 321.532 2604.2 316.865 2609.53 310.732C2614.87 304.599 2619.13 297.132 2622.33 288.332C2625.53 279.799 2627.13 270.332 2627.13 259.932V231.132C2627.4 228.199 2627.67 225.265 2627.93 222.332C2628.2 219.132 2628.47 216.065 2628.73 213.132C2626.6 217.932 2623.53 222.599 2619.53 227.132C2615.8 231.399 2611.13 235.265 2605.53 238.732C2600.2 241.932 2594.07 244.599 2587.13 246.732C2580.2 248.865 2572.87 249.932 2565.13 249.932C2554.2 249.932 2543.93 247.932 2534.33 243.932C2524.73 239.665 2516.33 234.065 2509.13 227.132C2502.2 220.199 2496.6 212.065 2492.33 202.732C2488.33 193.132 2486.33 182.865 2486.33 171.932C2486.33 161.265 2488.33 151.265 2492.33 141.932C2496.6 132.332 2502.2 124.065 2509.13 117.132C2516.33 109.932 2524.73 104.332 2534.33 100.332C2543.93 96.0653 2554.2 93.932 2565.13 93.932C2572.87 93.932 2580.2 95.132 2587.13 97.532C2594.07 99.6653 2600.33 102.599 2605.93 106.332C2611.53 109.799 2616.2 113.932 2619.93 118.732C2623.93 123.265 2626.87 127.799 2628.73 132.332C2628.73 126.465 2628.87 120.599 2629.13 114.732C2629.67 108.865 2630.07 102.999 2630.33 97.132ZM2503.13 171.932C2503.13 180.465 2504.73 188.465 2507.93 195.932C2511.13 203.399 2515.4 209.932 2520.73 215.532C2526.33 221.132 2532.87 225.532 2540.33 228.732C2548.07 231.932 2556.33 233.532 2565.13 233.532C2573.93 233.532 2582.07 231.932 2589.53 228.732C2597 225.532 2603.53 221.132 2609.13 215.532C2614.73 209.932 2619.13 203.399 2622.33 195.932C2625.53 188.465 2627.13 180.465 2627.13 171.932C2627.13 163.399 2625.53 155.399 2622.33 147.932C2619.13 140.199 2614.73 133.532 2609.13 127.932C2603.53 122.332 2597 117.932 2589.53 114.732C2582.07 111.532 2573.93 109.932 2565.13 109.932C2556.33 109.932 2548.07 111.532 2540.33 114.732C2532.87 117.932 2526.33 122.332 2520.73 127.932C2515.4 133.532 2511.13 140.199 2507.93 147.932C2504.73 155.399 2503.13 163.399 2503.13 171.932Z" fill="black"/>
<path d="M2701.96 171.932C2701.96 161.265 2703.96 151.265 2707.96 141.932C2712.23 132.332 2717.83 124.065 2724.76 117.132C2731.96 109.932 2740.36 104.332 2749.96 100.332C2759.56 96.0653 2769.83 93.932 2780.76 93.932C2788.49 93.932 2795.83 95.132 2802.76 97.532C2809.69 99.6653 2815.96 102.599 2821.56 106.332C2827.16 109.799 2831.83 113.932 2835.56 118.732C2839.56 123.265 2842.49 127.799 2844.36 132.332C2844.36 126.465 2844.49 120.599 2844.76 114.732C2845.29 108.865 2845.69 102.999 2845.96 97.132H2859.56V231.132H2889.16V247.132H2844.36V231.132C2844.36 227.932 2844.36 224.865 2844.36 221.932C2844.63 218.732 2844.76 215.665 2844.76 212.732C2842.89 217.265 2839.96 221.799 2835.96 226.332C2832.23 230.865 2827.56 234.865 2821.96 238.332C2816.63 241.799 2810.36 244.599 2803.16 246.732C2796.23 248.865 2788.76 249.932 2780.76 249.932C2769.83 249.932 2759.56 247.932 2749.96 243.932C2740.36 239.665 2731.96 234.065 2724.76 227.132C2717.83 220.199 2712.23 212.065 2707.96 202.732C2703.96 193.132 2701.96 182.865 2701.96 171.932ZM2718.76 171.932C2718.76 180.465 2720.36 188.465 2723.56 195.932C2726.76 203.399 2731.03 209.932 2736.36 215.532C2741.96 221.132 2748.49 225.532 2755.96 228.732C2763.69 231.932 2771.96 233.532 2780.76 233.532C2789.56 233.532 2797.69 231.932 2805.16 228.732C2812.63 225.532 2819.16 221.132 2824.76 215.532C2830.36 209.932 2834.76 203.399 2837.96 195.932C2841.16 188.465 2842.76 180.465 2842.76 171.932C2842.76 163.399 2841.16 155.399 2837.96 147.932C2834.76 140.199 2830.36 133.532 2824.76 127.932C2819.16 122.332 2812.63 117.932 2805.16 114.732C2797.69 111.532 2789.56 109.932 2780.76 109.932C2771.96 109.932 2763.69 111.532 2755.96 114.732C2748.49 117.932 2741.96 122.332 2736.36 127.932C2731.03 133.532 2726.76 140.199 2723.56 147.932C2720.36 155.399 2718.76 163.399 2718.76 171.932Z" fill="black"/>
<path d="M0.769531 267.799H0.771095V272.684C0.771095 278.823 5.83756 280.35 11.9759 280.35L17.5695 257.721V43.3986V33.5231L23.9695 40.9986L234.633 284.423C238.269 288.624 245.17 286.053 245.17 280.497V10.8805H228.37V246.199L229.57 258.999L221.97 248.599L13.7846 6.37578C12.3784 4.73974 10.3285 3.79858 8.17125 3.79858C4.0834 3.79858 0.769531 7.11245 0.769531 11.2003V19.7986V267.799Z" fill="black"/>
<path d="M3.14197 280.804C-0.0212822 277.641 -0.0212803 272.513 3.14197 269.349L48.2123 224.279C51.3755 221.116 56.5042 221.116 59.6674 224.279C62.8307 227.442 62.8307 232.571 59.6674 235.734L14.5971 280.804C11.4338 283.968 6.30521 283.968 3.14197 280.804Z" fill="black"/>
<path d="M186.202 62.501C183.039 59.3378 183.039 54.2091 186.202 51.0459L231.273 5.97552C234.436 2.81228 239.564 2.81227 242.728 5.97551C245.891 9.13876 245.891 14.2674 242.728 17.4307L197.657 62.501C194.494 65.6643 189.365 65.6642 186.202 62.501Z" fill="black"/>
<path d="M287.728 62.501C290.891 59.3378 290.891 54.2091 287.728 51.0459L242.657 5.97552C239.494 2.81228 234.365 2.81227 231.202 5.97551C228.039 9.13876 228.039 14.2674 231.202 17.4307L276.272 62.501C279.436 65.6643 284.564 65.6642 287.728 62.501Z" fill="black"/>
</svg>
