<svg width="1968" height="642" viewBox="0 0 1968 642" fill="none" xmlns="http://www.w3.org/2000/svg">
<path d="M301.162 176.941C301.162 166.274 303.162 156.141 307.162 146.541C311.429 136.941 317.029 128.674 323.962 121.741C331.162 114.541 339.429 108.941 348.762 104.941C358.362 100.674 368.629 98.541 379.562 98.541C390.495 98.541 400.762 100.674 410.362 104.941C419.962 108.941 428.362 114.541 435.562 121.741C442.762 128.674 448.362 136.941 452.362 146.541C456.629 156.141 458.762 166.274 458.762 176.941C458.762 187.874 456.629 198.141 452.362 207.741C448.362 217.074 442.762 225.208 435.562 232.141C428.362 239.074 419.962 244.674 410.362 248.941C400.762 252.941 390.495 254.941 379.562 254.941C368.629 254.941 358.362 252.941 348.762 248.941C339.429 244.674 331.162 239.074 323.962 232.141C317.029 225.208 311.429 217.074 307.162 207.741C303.162 198.141 301.162 187.874 301.162 176.941ZM317.562 176.941C317.562 185.474 319.162 193.474 322.362 200.941C325.562 208.408 329.962 214.941 335.562 220.541C341.162 226.141 347.695 230.541 355.162 233.741C362.629 236.941 370.629 238.541 379.162 238.541C387.695 238.541 395.695 236.941 403.162 233.741C410.895 230.541 417.562 226.141 423.162 220.541C428.762 214.941 433.162 208.408 436.362 200.941C439.562 193.474 441.162 185.474 441.162 176.941C441.162 168.408 439.562 160.408 436.362 152.941C433.162 145.474 428.762 138.941 423.162 133.341C417.562 127.741 410.895 123.341 403.162 120.141C395.695 116.674 387.695 114.941 379.162 114.941C370.629 114.941 362.629 116.674 355.162 120.141C347.695 123.341 341.162 127.741 335.562 133.341C329.962 138.941 325.562 145.474 322.362 152.941C319.162 160.408 317.562 168.408 317.562 176.941Z" fill="black"/>
<path d="M486.7 244.141C486.7 239.723 490.281 236.141 494.7 236.141H517.9V118.141H497.1C492.681 118.141 489.1 114.559 489.1 110.141C489.1 105.723 492.681 102.141 497.1 102.141H521.781C527.193 102.141 531.623 106.446 531.777 111.855L531.9 116.141C532.166 120.674 532.433 124.808 532.7 128.541C532.966 132.274 533.1 136.408 533.1 140.941C539.233 127.874 548.166 117.741 559.9 110.541C570.824 103.743 581.859 99.9296 593.005 99.0995C594.769 98.9681 596.188 100.467 596.059 102.231L595.757 106.357C595.383 111.463 591.195 115.382 586.132 116.141C580.902 116.926 575.891 118.259 571.1 120.141C563.9 122.808 557.5 126.541 551.9 131.341C546.566 136.141 542.3 141.874 539.1 148.541C535.9 155.208 534.3 162.408 534.3 170.141V236.141H555.9C560.318 236.141 563.9 239.723 563.9 244.141C563.9 248.559 560.318 252.141 555.9 252.141H494.7C490.281 252.141 486.7 248.559 486.7 244.141Z" fill="black"/>
<path d="M659 12.6493C659 8.01008 662.76 4.24928 667.4 4.24928C672.039 4.24928 675.8 8.01009 675.8 12.6493V102.141H713.6C718.128 102.141 721.8 105.812 721.8 110.341C721.8 114.87 718.128 118.541 713.6 118.541H675.8V236.141H700.6C705.018 236.141 708.6 239.723 708.6 244.141C708.6 248.559 705.018 252.141 700.6 252.141H669C663.477 252.141 659 247.664 659 242.141V118.541H632.4C627.871 118.541 624.2 114.87 624.2 110.341C624.2 105.812 627.871 102.141 632.4 102.141H659V12.6493Z" fill="black"/>
<path d="M862.781 244.141C862.781 239.723 866.363 236.141 870.781 236.141H893.981V148.141C893.448 139.608 890.247 132.141 884.381 125.741C878.781 119.341 870.381 115.874 859.181 115.341C851.181 115.341 843.448 116.808 835.981 119.741C828.514 122.408 821.848 126.141 815.981 130.941C810.381 135.741 805.848 141.474 802.381 148.141C799.181 154.808 797.581 162.141 797.581 170.141V236.141H819.201C823.608 236.141 827.181 239.714 827.181 244.12C827.181 248.543 823.583 252.122 819.16 252.1L756.899 251.779C752.851 251.758 749.581 248.471 749.581 244.423C749.581 240.469 752.706 237.222 756.658 237.072L781.181 236.141V20.1243H768.407C763.988 20.1243 760.407 16.5426 760.407 12.1243C760.407 7.70599 763.988 4.12427 768.407 4.12427H797.581V122.941L796.381 140.941C801.981 128.141 810.514 118.141 821.981 110.941C833.714 103.474 847.181 99.4744 862.381 98.941C877.048 98.941 888.648 103.074 897.181 111.341C905.714 119.608 910.247 130.408 910.781 143.741V236.141H931.981C936.399 236.141 939.981 239.723 939.981 244.141C939.981 248.559 936.399 252.141 931.981 252.141H870.781C866.363 252.141 862.781 248.559 862.781 244.141Z" fill="black"/>
<path d="M967.949 244.141C967.949 239.723 971.531 236.141 975.949 236.141H997.549V23.9993V7.99915L1014.35 7.99932V117.341C1014.08 120.541 1013.82 123.874 1013.55 127.341C1013.28 130.541 1013.02 133.741 1012.75 136.941C1014.62 132.141 1017.42 127.474 1021.15 122.941C1025.15 118.408 1029.95 114.408 1035.55 110.941C1041.15 107.208 1047.42 104.274 1054.35 102.141C1061.28 100.008 1068.62 98.9409 1076.35 98.9409C1087.28 98.9409 1097.55 101.074 1107.15 105.341C1116.75 109.341 1125.02 114.941 1131.95 122.141C1139.15 129.074 1144.75 137.341 1148.75 146.941C1153.02 156.274 1155.15 166.274 1155.15 176.941C1155.15 187.874 1153.02 198.141 1148.75 207.741C1144.75 217.074 1139.15 225.208 1131.95 232.141C1125.02 239.074 1116.75 244.674 1107.15 248.941C1097.55 252.941 1087.28 254.941 1076.35 254.941C1068.35 254.941 1060.75 253.874 1053.55 251.741C1046.62 249.608 1040.35 246.808 1034.75 243.341C1029.42 239.874 1024.75 235.874 1020.75 231.341C1017.02 226.808 1014.22 222.274 1012.35 217.741C1012.35 220.674 1012.35 223.741 1012.35 226.941C1012.62 229.874 1012.75 232.941 1012.75 236.141V249.141C1012.75 250.798 1011.41 252.141 1009.75 252.141H975.949C971.531 252.141 967.949 248.559 967.949 244.141ZM1138.35 176.941C1138.35 168.408 1136.75 160.408 1133.55 152.941C1130.35 145.208 1125.95 138.541 1120.35 132.941C1115.02 127.341 1108.48 122.941 1100.75 119.741C1093.28 116.541 1085.15 114.941 1076.35 114.941C1067.55 114.941 1059.42 116.541 1051.95 119.741C1044.48 122.941 1037.95 127.341 1032.35 132.941C1026.75 138.541 1022.35 145.208 1019.15 152.941C1015.95 160.408 1014.35 168.408 1014.35 176.941C1014.35 185.474 1015.95 193.474 1019.15 200.941C1022.35 208.408 1026.75 214.941 1032.35 220.541C1037.95 226.141 1044.48 230.541 1051.95 233.741C1059.42 236.941 1067.55 238.541 1076.35 238.541C1085.15 238.541 1093.28 236.941 1100.75 233.741C1108.48 230.541 1115.02 226.141 1120.35 220.541C1125.95 214.941 1130.35 208.408 1133.55 200.941C1136.75 193.474 1138.35 185.474 1138.35 176.941Z" fill="black"/>
<path d="M1181.58 176.941C1181.58 166.274 1183.58 156.141 1187.58 146.541C1191.85 136.941 1197.45 128.674 1204.38 121.741C1211.58 114.541 1219.85 108.941 1229.18 104.941C1238.78 100.674 1249.05 98.5409 1259.98 98.5409C1270.92 98.5409 1281.18 100.674 1290.78 104.941C1300.38 108.941 1308.78 114.541 1315.98 121.741C1323.18 128.674 1328.78 136.941 1332.78 146.541C1337.05 156.141 1339.18 166.274 1339.18 176.941C1339.18 187.874 1337.05 198.141 1332.78 207.741C1328.78 217.074 1323.18 225.208 1315.98 232.141C1308.78 239.074 1300.38 244.674 1290.78 248.941C1281.18 252.941 1270.92 254.941 1259.98 254.941C1249.05 254.941 1238.78 252.941 1229.18 248.941C1219.85 244.674 1211.58 239.074 1204.38 232.141C1197.45 225.208 1191.85 217.074 1187.58 207.741C1183.58 198.141 1181.58 187.874 1181.58 176.941ZM1197.98 176.941C1197.98 185.474 1199.58 193.474 1202.78 200.941C1205.98 208.408 1210.38 214.941 1215.98 220.541C1221.58 226.141 1228.12 230.541 1235.58 233.741C1243.05 236.941 1251.05 238.541 1259.58 238.541C1268.12 238.541 1276.12 236.941 1283.58 233.741C1291.32 230.541 1297.98 226.141 1303.58 220.541C1309.18 214.941 1313.58 208.408 1316.78 200.941C1319.98 193.474 1321.58 185.474 1321.58 176.941C1321.58 168.408 1319.98 160.408 1316.78 152.941C1313.58 145.474 1309.18 138.941 1303.58 133.341C1297.98 127.741 1291.32 123.341 1283.58 120.141C1276.12 116.674 1268.12 114.941 1259.58 114.941C1251.05 114.941 1243.05 116.674 1235.58 120.141C1228.12 123.341 1221.58 127.741 1215.98 133.341C1210.38 138.941 1205.98 145.474 1202.78 152.941C1199.58 160.408 1197.98 168.408 1197.98 176.941Z" fill="black"/>
<path d="M1358.12 110.141C1358.12 105.723 1361.7 102.141 1366.12 102.141H1394.12C1399.64 102.141 1404.12 106.618 1404.12 112.141V206.141C1404.65 214.674 1407.72 222.141 1413.32 228.541C1419.19 234.941 1427.72 238.408 1438.92 238.941C1447.19 238.941 1455.05 237.608 1462.52 234.941C1469.99 232.008 1476.52 228.141 1482.12 223.341C1487.72 218.541 1492.12 212.808 1495.32 206.141C1498.79 199.474 1500.52 192.141 1500.52 184.141V118.141H1478.92C1474.5 118.141 1470.92 114.559 1470.92 110.141C1470.92 105.723 1474.5 102.141 1478.92 102.141H1507.32C1512.84 102.141 1517.32 106.618 1517.32 112.141V237.741H1538.52C1542.5 237.741 1545.72 240.964 1545.72 244.941C1545.72 248.917 1542.5 252.141 1538.52 252.141H1512.14C1506.77 252.141 1502.36 247.895 1502.15 242.525L1501.72 231.341V213.341C1496.39 226.141 1487.72 236.408 1475.72 244.141C1463.99 251.608 1450.79 255.341 1436.12 255.341C1421.45 255.341 1409.85 251.208 1401.32 242.941C1392.79 234.674 1388.25 223.874 1387.72 210.541V118.141H1366.12C1361.7 118.141 1358.12 114.559 1358.12 110.141Z" fill="black"/>
<path d="M1686.55 244.141C1686.55 239.723 1690.13 236.141 1694.55 236.141H1717.75V148.141C1717.21 139.608 1714.01 132.141 1708.15 125.741C1702.55 119.341 1694.15 115.874 1682.95 115.341C1674.95 115.341 1667.21 116.808 1659.75 119.741C1652.28 122.408 1645.61 126.141 1639.75 130.941C1634.15 135.741 1629.61 141.474 1626.15 148.141C1622.95 154.808 1621.35 162.141 1621.35 170.141V236.141H1642.95C1647.36 236.141 1650.95 239.723 1650.95 244.141C1650.95 248.559 1647.36 252.141 1642.95 252.141H1581.75C1577.33 252.141 1573.75 248.559 1573.75 244.141C1573.75 239.723 1577.33 236.141 1581.75 236.141H1604.95V118.141H1584.15C1579.73 118.141 1576.15 114.559 1576.15 110.141C1576.15 105.723 1579.73 102.141 1584.15 102.141H1608.83C1614.24 102.141 1618.67 106.446 1618.82 111.855L1618.95 116.141C1619.21 120.674 1619.48 124.808 1619.75 128.541C1620.01 132.274 1620.15 136.408 1620.15 140.941C1625.48 128.408 1634.01 118.274 1645.75 110.541C1657.75 102.808 1671.21 98.9409 1686.15 98.9409C1700.81 98.9409 1712.41 103.074 1720.95 111.341C1729.48 119.608 1734.01 130.408 1734.55 143.741V236.141H1755.75C1760.16 236.141 1763.75 239.723 1763.75 244.141C1763.75 248.559 1760.16 252.141 1755.75 252.141H1694.55C1690.13 252.141 1686.55 248.559 1686.55 244.141Z" fill="black"/>
<path d="M1923.11 236.141C1923.11 232.941 1923.11 229.874 1923.11 226.941C1923.38 223.741 1923.51 220.674 1923.51 217.741C1921.65 222.274 1918.71 226.808 1914.71 231.341C1910.98 235.874 1906.31 239.874 1900.71 243.341C1895.38 246.808 1889.11 249.608 1881.91 251.741C1874.98 253.874 1867.51 254.941 1859.51 254.941C1848.58 254.941 1838.31 252.941 1828.71 248.941C1819.11 244.674 1810.71 239.074 1803.51 232.141C1796.58 225.208 1790.98 217.074 1786.71 207.741C1782.71 198.141 1780.71 187.874 1780.71 176.941C1780.71 166.274 1782.71 156.274 1786.71 146.941C1790.98 137.341 1796.58 129.074 1803.51 122.141C1810.71 114.941 1819.11 109.341 1828.71 105.341C1838.31 101.074 1848.58 98.9409 1859.51 98.9409C1867.25 98.9409 1874.45 100.008 1881.11 102.141C1888.05 104.274 1894.31 107.208 1899.91 110.941C1905.51 114.408 1910.31 118.408 1914.31 122.941C1918.31 127.474 1921.25 132.141 1923.11 136.941C1922.85 131.341 1922.58 125.741 1922.31 120.141C1922.05 114.541 1921.78 108.941 1921.51 103.341V17.999V4.25H1928.31C1933.84 4.25 1938.31 8.72715 1938.31 14.25V236.141H1959.91C1964.33 236.141 1967.91 239.723 1967.91 244.141C1967.91 248.559 1964.33 252.141 1959.91 252.141H1926.11C1924.46 252.141 1923.11 250.798 1923.11 249.141V236.141ZM1797.51 176.941C1797.51 185.474 1799.11 193.474 1802.31 200.941C1805.51 208.408 1809.78 214.941 1815.11 220.541C1820.71 226.141 1827.25 230.541 1834.71 233.741C1842.45 236.941 1850.71 238.541 1859.51 238.541C1868.31 238.541 1876.45 236.941 1883.91 233.741C1891.38 230.541 1897.91 226.141 1903.51 220.541C1909.11 214.941 1913.51 208.408 1916.71 200.941C1919.91 193.474 1921.51 185.474 1921.51 176.941C1921.51 168.408 1919.91 160.408 1916.71 152.941C1913.51 145.208 1909.11 138.541 1903.51 132.941C1897.91 127.341 1891.38 122.941 1883.91 119.741C1876.45 116.541 1868.31 114.941 1859.51 114.941C1850.71 114.941 1842.45 116.541 1834.71 119.741C1827.25 122.941 1820.71 127.341 1815.11 132.941C1809.78 138.541 1805.51 145.208 1802.31 152.941C1799.11 160.408 1797.51 168.408 1797.51 176.941Z" fill="black"/>
<path d="M0.771095 268.202H0.769531V20.2019V11.6036C0.769531 7.51577 4.0834 4.2019 8.17125 4.2019C10.3285 4.2019 12.3784 5.14307 13.7846 6.7791L221.97 249.002L229.57 259.402L228.37 246.602V11.2838H245.17V280.9C245.17 286.456 238.269 289.028 234.633 284.826L23.9695 41.4019L16.3695 32.6019L17.5695 43.8019V268.202C20.5687 268.202 23 270.633 23 273.632V276.202C23 280.62 19.4183 284.202 15 284.202H11.8856C5.74721 284.202 0.771095 279.226 0.771095 273.087V268.202Z" fill="black"/>
<path d="M186.202 62.9043C183.039 59.7411 183.039 54.6124 186.202 51.4492L231.273 6.37886C234.436 3.21562 239.564 3.21561 242.728 6.37885C245.891 9.5421 245.891 14.6707 242.728 17.834L197.657 62.9043C194.494 66.0676 189.365 66.0676 186.202 62.9043Z" fill="black"/>
<path d="M287.728 62.9043C290.891 59.7411 290.891 54.6124 287.728 51.4492L242.657 6.37886C239.494 3.21562 234.365 3.21561 231.202 6.37885C228.039 9.5421 228.039 14.6707 231.202 17.834L276.272 62.9043C279.436 66.0676 284.564 66.0676 287.728 62.9043Z" fill="black"/>
<path d="M11.4971 280.404C8.33385 277.241 8.33385 272.112 11.4971 268.949L56.5674 223.879C59.7307 220.716 64.8593 220.716 68.0226 223.879C71.1858 227.042 71.1858 232.171 68.0226 235.334L22.9522 280.404C19.789 283.568 14.6603 283.568 11.4971 280.404Z" fill="black"/>
<path d="M980.25 11.2795C980.25 7.37063 983.419 4.2019 987.328 4.2019H1011.38C1013.03 4.2019 1014.38 5.54505 1014.38 7.2019V15.357C1014.38 17.0139 1013.03 18.357 1011.38 18.357H987.328C983.419 18.357 980.25 15.1883 980.25 11.2795Z" fill="black"/>
<path d="M1904.25 11.2795C1904.25 7.37063 1907.42 4.2019 1911.33 4.2019H1935.38C1937.03 4.2019 1938.38 5.54505 1938.38 7.2019V15.357C1938.38 17.0139 1937.03 18.357 1935.38 18.357H1911.33C1907.42 18.357 1904.25 15.1883 1904.25 11.2795Z" fill="black"/>
<path d="M337.962 625.132H371.962C378.895 611.266 385.829 597.266 392.762 583.132C399.695 569.266 406.629 555.532 413.562 541.932C402.095 519.266 390.762 496.866 379.562 474.732C368.362 452.332 357.162 429.799 345.962 407.132H315.162V391.132H389.162V407.132H363.962C373.829 427.132 383.695 446.999 393.562 466.732C403.695 486.199 413.295 505.932 422.362 525.932C430.895 506.732 440.229 487.132 450.362 467.132C460.495 447.132 470.629 427.132 480.762 407.132H457.562V391.132H527.562V407.132H498.362C479.962 443.666 461.829 480.066 443.962 516.332C426.095 552.332 407.962 588.599 389.562 625.132H415.162V641.132H337.962V625.132Z" fill="black"/>
<path d="M535.796 465.932C535.796 455.266 537.796 445.132 541.796 435.532C546.063 425.932 551.663 417.666 558.596 410.732C565.796 403.532 574.063 397.932 583.396 393.932C592.996 389.666 603.263 387.532 614.197 387.532C625.13 387.532 635.396 389.666 644.996 393.932C654.596 397.932 662.997 403.532 670.197 410.732C677.397 417.666 682.996 425.932 686.996 435.532C691.263 445.132 693.396 455.266 693.396 465.932C693.396 476.866 691.263 487.132 686.996 496.732C682.996 506.066 677.397 514.199 670.197 521.132C662.997 528.066 654.596 533.666 644.996 537.932C635.396 541.932 625.13 543.932 614.197 543.932C603.263 543.932 592.996 541.932 583.396 537.932C574.063 533.666 565.796 528.066 558.596 521.132C551.663 514.199 546.063 506.066 541.796 496.732C537.796 487.132 535.796 476.866 535.796 465.932ZM552.196 465.932C552.196 474.466 553.796 482.466 556.996 489.932C560.196 497.399 564.597 503.932 570.197 509.532C575.797 515.132 582.33 519.532 589.796 522.732C597.263 525.932 605.263 527.532 613.796 527.532C622.33 527.532 630.33 525.932 637.796 522.732C645.53 519.532 652.196 515.132 657.796 509.532C663.396 503.932 667.796 497.399 670.996 489.932C674.196 482.466 675.796 474.466 675.796 465.932C675.796 457.399 674.196 449.399 670.996 441.932C667.796 434.466 663.396 427.932 657.796 422.332C652.196 416.732 645.53 412.332 637.796 409.132C630.33 405.666 622.33 403.932 613.796 403.932C605.263 403.932 597.263 405.666 589.796 409.132C582.33 412.332 575.797 416.732 570.197 422.332C564.597 427.932 560.196 434.466 556.996 441.932C553.796 449.399 552.196 457.399 552.196 465.932Z" fill="black"/>
<path d="M865.334 391.132H908.934V407.132H878.934V555.132C878.934 568.199 876.934 579.932 872.934 590.332C868.934 600.999 863.467 610.066 856.534 617.532C849.601 624.999 841.467 630.732 832.134 634.732C823.067 638.732 813.201 640.866 802.534 641.132C791.334 640.866 780.001 638.732 768.534 634.732C757.334 630.732 748.134 624.866 740.934 617.132L752.934 604.732C758.801 611.132 766.267 615.932 775.334 619.132C784.401 622.332 793.334 623.932 802.134 623.932C810.401 623.932 818.134 622.199 825.334 618.732C832.801 615.532 839.201 610.866 844.534 604.732C849.867 598.599 854.134 591.132 857.334 582.332C860.534 573.799 862.134 564.332 862.134 553.932V525.132C862.401 522.199 862.667 519.266 862.934 516.332C863.201 513.132 863.467 510.066 863.734 507.132C861.601 511.932 858.534 516.599 854.534 521.132C850.801 525.399 846.134 529.266 840.534 532.732C835.201 535.932 829.067 538.599 822.134 540.732C815.201 542.866 807.867 543.932 800.134 543.932C789.201 543.932 778.934 541.932 769.334 537.932C759.734 533.666 751.334 528.066 744.134 521.132C737.201 514.199 731.601 506.066 727.334 496.732C723.334 487.132 721.334 476.866 721.334 465.932C721.334 455.266 723.334 445.266 727.334 435.932C731.601 426.332 737.201 418.066 744.134 411.132C751.334 403.932 759.734 398.332 769.334 394.332C778.934 390.066 789.201 387.932 800.134 387.932C807.867 387.932 815.201 389.132 822.134 391.532C829.067 393.666 835.334 396.599 840.934 400.332C846.534 403.799 851.201 407.932 854.934 412.732C858.934 417.266 861.867 421.799 863.734 426.332C863.734 420.466 863.867 414.599 864.134 408.732C864.667 402.866 865.067 396.999 865.334 391.132ZM738.134 465.932C738.134 474.466 739.734 482.466 742.934 489.932C746.134 497.399 750.401 503.932 755.734 509.532C761.334 515.132 767.867 519.532 775.334 522.732C783.067 525.932 791.334 527.532 800.134 527.532C808.934 527.532 817.067 525.932 824.534 522.732C832.001 519.532 838.534 515.132 844.134 509.532C849.734 503.932 854.134 497.399 857.334 489.932C860.534 482.466 862.134 474.466 862.134 465.932C862.134 457.399 860.534 449.399 857.334 441.932C854.134 434.199 849.734 427.532 844.134 421.932C838.534 416.332 832.001 411.932 824.534 408.732C817.067 405.532 808.934 403.932 800.134 403.932C791.334 403.932 783.067 405.532 775.334 408.732C767.867 411.932 761.334 416.332 755.734 421.932C750.401 427.532 746.134 434.199 742.934 441.932C739.734 449.399 738.134 457.399 738.134 465.932Z" fill="black"/>
<path d="M936.959 465.932C936.959 455.266 938.959 445.266 942.959 435.932C947.226 426.332 952.826 418.066 959.759 411.132C966.959 403.932 975.359 398.332 984.959 394.332C994.559 390.066 1004.83 387.932 1015.76 387.932C1023.49 387.932 1030.83 389.132 1037.76 391.532C1044.69 393.666 1050.96 396.599 1056.56 400.332C1062.16 403.799 1066.83 407.932 1070.56 412.732C1074.56 417.266 1077.49 421.799 1079.36 426.332C1079.36 420.466 1079.49 414.599 1079.76 408.732C1080.29 402.866 1080.69 396.999 1080.96 391.132H1094.56V525.132H1124.16V541.132H1079.36V525.132C1079.36 521.932 1079.36 518.866 1079.36 515.932C1079.63 512.732 1079.76 509.666 1079.76 506.732C1077.89 511.266 1074.96 515.799 1070.96 520.332C1067.23 524.866 1062.56 528.866 1056.96 532.332C1051.63 535.799 1045.36 538.599 1038.16 540.732C1031.23 542.866 1023.76 543.932 1015.76 543.932C1004.83 543.932 994.559 541.932 984.959 537.932C975.359 533.666 966.959 528.066 959.759 521.132C952.826 514.199 947.226 506.066 942.959 496.732C938.959 487.132 936.959 476.866 936.959 465.932ZM953.759 465.932C953.759 474.466 955.359 482.466 958.559 489.932C961.759 497.399 966.026 503.932 971.359 509.532C976.959 515.132 983.492 519.532 990.959 522.732C998.692 525.932 1006.96 527.532 1015.76 527.532C1024.56 527.532 1032.69 525.932 1040.16 522.732C1047.63 519.532 1054.16 515.132 1059.76 509.532C1065.36 503.932 1069.76 497.399 1072.96 489.932C1076.16 482.466 1077.76 474.466 1077.76 465.932C1077.76 457.399 1076.16 449.399 1072.96 441.932C1069.76 434.199 1065.36 427.532 1059.76 421.932C1054.16 416.332 1047.63 411.932 1040.16 408.732C1032.69 405.532 1024.56 403.932 1015.76 403.932C1006.96 403.932 998.692 405.532 990.959 408.732C983.492 411.932 976.959 416.332 971.359 421.932C966.026 427.532 961.759 434.199 958.559 441.932C955.359 449.399 953.759 457.399 953.759 465.932Z" fill="black"/>
</svg>
