<svg width="1968" height="638" viewBox="0 0 1968 638" fill="none" xmlns="http://www.w3.org/2000/svg">
<path d="M301.162 172.941C301.162 162.274 303.162 152.141 307.162 142.541C311.429 132.941 317.029 124.674 323.962 117.741C331.162 110.541 339.429 104.941 348.762 100.941C358.362 96.6744 368.629 94.541 379.562 94.541C390.495 94.541 400.762 96.6744 410.362 100.941C419.962 104.941 428.362 110.541 435.562 117.741C442.762 124.674 448.362 132.941 452.362 142.541C456.629 152.141 458.762 162.274 458.762 172.941C458.762 183.874 456.629 194.141 452.362 203.741C448.362 213.074 442.762 221.208 435.562 228.141C428.362 235.074 419.962 240.674 410.362 244.941C400.762 248.941 390.495 250.941 379.562 250.941C368.629 250.941 358.362 248.941 348.762 244.941C339.429 240.674 331.162 235.074 323.962 228.141C317.029 221.208 311.429 213.074 307.162 203.741C303.162 194.141 301.162 183.874 301.162 172.941ZM317.562 172.941C317.562 181.474 319.162 189.474 322.362 196.941C325.562 204.408 329.962 210.941 335.562 216.541C341.162 222.141 347.695 226.541 355.162 229.741C362.629 232.941 370.629 234.541 379.162 234.541C387.695 234.541 395.695 232.941 403.162 229.741C410.895 226.541 417.562 222.141 423.162 216.541C428.762 210.941 433.162 204.408 436.362 196.941C439.562 189.474 441.162 181.474 441.162 172.941C441.162 164.408 439.562 156.408 436.362 148.941C433.162 141.474 428.762 134.941 423.162 129.341C417.562 123.741 410.895 119.341 403.162 116.141C395.695 112.674 387.695 110.941 379.162 110.941C370.629 110.941 362.629 112.674 355.162 116.141C347.695 119.341 341.162 123.741 335.562 129.341C329.962 134.941 325.562 141.474 322.362 148.941C319.162 156.408 317.562 164.408 317.562 172.941Z" fill="black"/>
<path d="M486.7 240.141C486.7 235.723 490.281 232.141 494.7 232.141H517.9V114.141H497.1C492.681 114.141 489.1 110.559 489.1 106.141C489.1 101.723 492.681 98.141 497.1 98.141H521.781C527.193 98.141 531.623 102.446 531.777 107.855L531.9 112.141C532.166 116.674 532.433 120.808 532.7 124.541C532.966 128.274 533.1 132.408 533.1 136.941C539.233 123.874 548.166 113.741 559.9 106.541C570.824 99.7435 581.859 95.9296 593.005 95.0995C594.769 94.9681 596.188 96.4667 596.059 98.2309L595.757 102.357C595.383 107.463 591.195 111.382 586.132 112.141C580.902 112.926 575.891 114.259 571.1 116.141C563.9 118.808 557.5 122.541 551.9 127.341C546.566 132.141 542.3 137.874 539.1 144.541C535.9 151.208 534.3 158.408 534.3 166.141V232.141H555.9C560.318 232.141 563.9 235.723 563.9 240.141C563.9 244.559 560.318 248.141 555.9 248.141H494.7C490.281 248.141 486.7 244.559 486.7 240.141Z" fill="black"/>
<path d="M659 8.64926C659 4.01007 662.76 0.249268 667.4 0.249268C672.039 0.249268 675.8 4.01008 675.8 8.64926V98.141H713.6C718.128 98.141 721.8 101.812 721.8 106.341C721.8 110.87 718.128 114.541 713.6 114.541H675.8V232.141H700.6C705.018 232.141 708.6 235.723 708.6 240.141C708.6 244.559 705.018 248.141 700.6 248.141H669C663.477 248.141 659 243.664 659 238.141V114.541H632.4C627.871 114.541 624.2 110.87 624.2 106.341C624.2 101.812 627.871 98.141 632.4 98.141H659V8.64926Z" fill="black"/>
<path d="M862.781 240.141C862.781 235.723 866.363 232.141 870.781 232.141H893.981V144.141C893.448 135.608 890.247 128.141 884.381 121.741C878.781 115.341 870.381 111.874 859.181 111.341C851.181 111.341 843.448 112.808 835.981 115.741C828.514 118.408 821.848 122.141 815.981 126.941C810.381 131.741 805.848 137.474 802.381 144.141C799.181 150.808 797.581 158.141 797.581 166.141V232.141H819.201C823.608 232.141 827.181 235.714 827.181 240.12C827.181 244.543 823.583 248.122 819.16 248.1L756.899 247.779C752.851 247.758 749.581 244.471 749.581 240.423C749.581 236.469 752.706 233.222 756.658 233.072L781.181 232.141V16.1243H768.407C763.988 16.1243 760.407 12.5426 760.407 8.12427C760.407 3.70599 763.988 0.124268 768.407 0.124268H797.581V118.941L796.381 136.941C801.981 124.141 810.514 114.141 821.981 106.941C833.714 99.4744 847.181 95.4744 862.381 94.941C877.048 94.941 888.648 99.0744 897.181 107.341C905.714 115.608 910.247 126.408 910.781 139.741V232.141H931.981C936.399 232.141 939.981 235.723 939.981 240.141C939.981 244.559 936.399 248.141 931.981 248.141H870.781C866.363 248.141 862.781 244.559 862.781 240.141Z" fill="black"/>
<path d="M967.949 240.141C967.949 235.723 971.531 232.141 975.949 232.141H997.549V19.9993V3.99915L1014.35 3.99932V113.341C1014.08 116.541 1013.82 119.874 1013.55 123.341C1013.28 126.541 1013.02 129.741 1012.75 132.941C1014.62 128.141 1017.42 123.474 1021.15 118.941C1025.15 114.408 1029.95 110.408 1035.55 106.941C1041.15 103.208 1047.42 100.274 1054.35 98.1409C1061.28 96.0076 1068.62 94.9409 1076.35 94.9409C1087.28 94.9409 1097.55 97.0743 1107.15 101.341C1116.75 105.341 1125.02 110.941 1131.95 118.141C1139.15 125.074 1144.75 133.341 1148.75 142.941C1153.02 152.274 1155.15 162.274 1155.15 172.941C1155.15 183.874 1153.02 194.141 1148.75 203.741C1144.75 213.074 1139.15 221.208 1131.95 228.141C1125.02 235.074 1116.75 240.674 1107.15 244.941C1097.55 248.941 1087.28 250.941 1076.35 250.941C1068.35 250.941 1060.75 249.874 1053.55 247.741C1046.62 245.608 1040.35 242.808 1034.75 239.341C1029.42 235.874 1024.75 231.874 1020.75 227.341C1017.02 222.808 1014.22 218.274 1012.35 213.741C1012.35 216.674 1012.35 219.741 1012.35 222.941C1012.62 225.874 1012.75 228.941 1012.75 232.141V245.141C1012.75 246.798 1011.41 248.141 1009.75 248.141H975.949C971.531 248.141 967.949 244.559 967.949 240.141ZM1138.35 172.941C1138.35 164.408 1136.75 156.408 1133.55 148.941C1130.35 141.208 1125.95 134.541 1120.35 128.941C1115.02 123.341 1108.48 118.941 1100.75 115.741C1093.28 112.541 1085.15 110.941 1076.35 110.941C1067.55 110.941 1059.42 112.541 1051.95 115.741C1044.48 118.941 1037.95 123.341 1032.35 128.941C1026.75 134.541 1022.35 141.208 1019.15 148.941C1015.95 156.408 1014.35 164.408 1014.35 172.941C1014.35 181.474 1015.95 189.474 1019.15 196.941C1022.35 204.408 1026.75 210.941 1032.35 216.541C1037.95 222.141 1044.48 226.541 1051.95 229.741C1059.42 232.941 1067.55 234.541 1076.35 234.541C1085.15 234.541 1093.28 232.941 1100.75 229.741C1108.48 226.541 1115.02 222.141 1120.35 216.541C1125.95 210.941 1130.35 204.408 1133.55 196.941C1136.75 189.474 1138.35 181.474 1138.35 172.941Z" fill="black"/>
<path d="M1181.58 172.941C1181.58 162.274 1183.58 152.141 1187.58 142.541C1191.85 132.941 1197.45 124.674 1204.38 117.741C1211.58 110.541 1219.85 104.941 1229.18 100.941C1238.78 96.6743 1249.05 94.5409 1259.98 94.5409C1270.92 94.5409 1281.18 96.6743 1290.78 100.941C1300.38 104.941 1308.78 110.541 1315.98 117.741C1323.18 124.674 1328.78 132.941 1332.78 142.541C1337.05 152.141 1339.18 162.274 1339.18 172.941C1339.18 183.874 1337.05 194.141 1332.78 203.741C1328.78 213.074 1323.18 221.208 1315.98 228.141C1308.78 235.074 1300.38 240.674 1290.78 244.941C1281.18 248.941 1270.92 250.941 1259.98 250.941C1249.05 250.941 1238.78 248.941 1229.18 244.941C1219.85 240.674 1211.58 235.074 1204.38 228.141C1197.45 221.208 1191.85 213.074 1187.58 203.741C1183.58 194.141 1181.58 183.874 1181.58 172.941ZM1197.98 172.941C1197.98 181.474 1199.58 189.474 1202.78 196.941C1205.98 204.408 1210.38 210.941 1215.98 216.541C1221.58 222.141 1228.12 226.541 1235.58 229.741C1243.05 232.941 1251.05 234.541 1259.58 234.541C1268.12 234.541 1276.12 232.941 1283.58 229.741C1291.32 226.541 1297.98 222.141 1303.58 216.541C1309.18 210.941 1313.58 204.408 1316.78 196.941C1319.98 189.474 1321.58 181.474 1321.58 172.941C1321.58 164.408 1319.98 156.408 1316.78 148.941C1313.58 141.474 1309.18 134.941 1303.58 129.341C1297.98 123.741 1291.32 119.341 1283.58 116.141C1276.12 112.674 1268.12 110.941 1259.58 110.941C1251.05 110.941 1243.05 112.674 1235.58 116.141C1228.12 119.341 1221.58 123.741 1215.98 129.341C1210.38 134.941 1205.98 141.474 1202.78 148.941C1199.58 156.408 1197.98 164.408 1197.98 172.941Z" fill="black"/>
<path d="M1358.12 106.141C1358.12 101.723 1361.7 98.1409 1366.12 98.1409H1394.12C1399.64 98.1409 1404.12 102.618 1404.12 108.141V202.141C1404.65 210.674 1407.72 218.141 1413.32 224.541C1419.19 230.941 1427.72 234.408 1438.92 234.941C1447.19 234.941 1455.05 233.608 1462.52 230.941C1469.99 228.008 1476.52 224.141 1482.12 219.341C1487.72 214.541 1492.12 208.808 1495.32 202.141C1498.79 195.474 1500.52 188.141 1500.52 180.141V114.141H1478.92C1474.5 114.141 1470.92 110.559 1470.92 106.141C1470.92 101.723 1474.5 98.1409 1478.92 98.1409H1507.32C1512.84 98.1409 1517.32 102.618 1517.32 108.141V233.741H1538.52C1542.5 233.741 1545.72 236.964 1545.72 240.941C1545.72 244.917 1542.5 248.141 1538.52 248.141H1512.14C1506.77 248.141 1502.36 243.895 1502.15 238.525L1501.72 227.341V209.341C1496.39 222.141 1487.72 232.408 1475.72 240.141C1463.99 247.608 1450.79 251.341 1436.12 251.341C1421.45 251.341 1409.85 247.208 1401.32 238.941C1392.79 230.674 1388.25 219.874 1387.72 206.541V114.141H1366.12C1361.7 114.141 1358.12 110.559 1358.12 106.141Z" fill="black"/>
<path d="M1686.55 240.141C1686.55 235.723 1690.13 232.141 1694.55 232.141H1717.75V144.141C1717.21 135.608 1714.01 128.141 1708.15 121.741C1702.55 115.341 1694.15 111.874 1682.95 111.341C1674.95 111.341 1667.21 112.808 1659.75 115.741C1652.28 118.408 1645.61 122.141 1639.75 126.941C1634.15 131.741 1629.61 137.474 1626.15 144.141C1622.95 150.808 1621.35 158.141 1621.35 166.141V232.141H1642.95C1647.36 232.141 1650.95 235.723 1650.95 240.141C1650.95 244.559 1647.36 248.141 1642.95 248.141H1581.75C1577.33 248.141 1573.75 244.559 1573.75 240.141C1573.75 235.723 1577.33 232.141 1581.75 232.141H1604.95V114.141H1584.15C1579.73 114.141 1576.15 110.559 1576.15 106.141C1576.15 101.723 1579.73 98.1409 1584.15 98.1409H1608.83C1614.24 98.1409 1618.67 102.446 1618.82 107.855L1618.95 112.141C1619.21 116.674 1619.48 120.808 1619.75 124.541C1620.01 128.274 1620.15 132.408 1620.15 136.941C1625.48 124.408 1634.01 114.274 1645.75 106.541C1657.75 98.8076 1671.21 94.9409 1686.15 94.9409C1700.81 94.9409 1712.41 99.0742 1720.95 107.341C1729.48 115.608 1734.01 126.408 1734.55 139.741V232.141H1755.75C1760.16 232.141 1763.75 235.723 1763.75 240.141C1763.75 244.559 1760.16 248.141 1755.75 248.141H1694.55C1690.13 248.141 1686.55 244.559 1686.55 240.141Z" fill="black"/>
<path d="M1923.11 232.141C1923.11 228.941 1923.11 225.874 1923.11 222.941C1923.38 219.741 1923.51 216.674 1923.51 213.741C1921.65 218.274 1918.71 222.808 1914.71 227.341C1910.98 231.874 1906.31 235.874 1900.71 239.341C1895.38 242.808 1889.11 245.608 1881.91 247.741C1874.98 249.874 1867.51 250.941 1859.51 250.941C1848.58 250.941 1838.31 248.941 1828.71 244.941C1819.11 240.674 1810.71 235.074 1803.51 228.141C1796.58 221.208 1790.98 213.074 1786.71 203.741C1782.71 194.141 1780.71 183.874 1780.71 172.941C1780.71 162.274 1782.71 152.274 1786.71 142.941C1790.98 133.341 1796.58 125.074 1803.51 118.141C1810.71 110.941 1819.11 105.341 1828.71 101.341C1838.31 97.0743 1848.58 94.9409 1859.51 94.9409C1867.25 94.9409 1874.45 96.0076 1881.11 98.1409C1888.05 100.274 1894.31 103.208 1899.91 106.941C1905.51 110.408 1910.31 114.408 1914.31 118.941C1918.31 123.474 1921.25 128.141 1923.11 132.941C1922.85 127.341 1922.58 121.741 1922.31 116.141C1922.05 110.541 1921.78 104.941 1921.51 99.3409V13.999V0.25H1928.31C1933.84 0.25 1938.31 4.72715 1938.31 10.25V232.141H1959.91C1964.33 232.141 1967.91 235.723 1967.91 240.141C1967.91 244.559 1964.33 248.141 1959.91 248.141H1926.11C1924.46 248.141 1923.11 246.798 1923.11 245.141V232.141ZM1797.51 172.941C1797.51 181.474 1799.11 189.474 1802.31 196.941C1805.51 204.408 1809.78 210.941 1815.11 216.541C1820.71 222.141 1827.25 226.541 1834.71 229.741C1842.45 232.941 1850.71 234.541 1859.51 234.541C1868.31 234.541 1876.45 232.941 1883.91 229.741C1891.38 226.541 1897.91 222.141 1903.51 216.541C1909.11 210.941 1913.51 204.408 1916.71 196.941C1919.91 189.474 1921.51 181.474 1921.51 172.941C1921.51 164.408 1919.91 156.408 1916.71 148.941C1913.51 141.208 1909.11 134.541 1903.51 128.941C1897.91 123.341 1891.38 118.941 1883.91 115.741C1876.45 112.541 1868.31 110.941 1859.51 110.941C1850.71 110.941 1842.45 112.541 1834.71 115.741C1827.25 118.941 1820.71 123.341 1815.11 128.941C1809.78 134.541 1805.51 141.208 1802.31 148.941C1799.11 156.408 1797.51 164.408 1797.51 172.941Z" fill="black"/>
<path d="M0.769531 270.799H0.771095V275.684C0.771095 281.823 5.83756 283.35 11.9759 283.35L17.5695 260.721V46.3988V36.5233L23.9695 43.9988L234.633 287.423C238.269 291.625 245.17 289.053 245.17 283.497V13.8807H228.37V249.199L229.57 261.999L221.97 251.599L13.7846 9.37602C12.3784 7.73999 10.3285 6.79883 8.17125 6.79883C4.0834 6.79883 0.769531 10.1127 0.769531 14.2005V22.7988V270.799Z" fill="black"/>
<path d="M3.14197 283.805C-0.0212822 280.641 -0.0212803 275.513 3.14197 272.35L48.2123 227.279C51.3755 224.116 56.5042 224.116 59.6674 227.279C62.8307 230.442 62.8307 235.571 59.6674 238.734L14.5971 283.805C11.4338 286.968 6.30521 286.968 3.14197 283.805Z" fill="black"/>
<path d="M186.202 65.5012C183.039 62.338 183.039 57.2094 186.202 54.0461L231.273 8.97578C234.436 5.81253 239.564 5.81251 242.728 8.97576C245.891 12.139 245.891 17.2677 242.728 20.4309L197.657 65.5013C194.494 68.6645 189.365 68.6645 186.202 65.5012Z" fill="black"/>
<path d="M287.728 65.5012C290.891 62.338 290.891 57.2094 287.728 54.0461L242.657 8.97578C239.494 5.81253 234.365 5.81251 231.202 8.97576C228.039 12.139 228.039 17.2677 231.202 20.4309L276.272 65.5013C279.436 68.6645 284.564 68.6645 287.728 65.5012Z" fill="black"/>
<path d="M980.25 7.27946C980.25 3.37063 983.419 0.201904 987.328 0.201904H1011.38C1013.03 0.201904 1014.38 1.54505 1014.38 3.2019V11.357C1014.38 13.0139 1013.03 14.357 1011.38 14.357H987.328C983.419 14.357 980.25 11.1883 980.25 7.27946Z" fill="black"/>
<path d="M1904.25 7.27946C1904.25 3.37063 1907.42 0.201904 1911.33 0.201904H1935.38C1937.03 0.201904 1938.38 1.54505 1938.38 3.2019V11.357C1938.38 13.0139 1937.03 14.357 1935.38 14.357H1911.33C1907.42 14.357 1904.25 11.1883 1904.25 7.27946Z" fill="black"/>
<path d="M337.962 621.132H371.962C378.895 607.266 385.829 593.266 392.762 579.132C399.695 565.266 406.629 551.532 413.562 537.932C402.095 515.266 390.762 492.866 379.562 470.732C368.362 448.332 357.162 425.799 345.962 403.132H315.162V387.132H389.162V403.132H363.962C373.829 423.132 383.695 442.999 393.562 462.732C403.695 482.199 413.295 501.932 422.362 521.932C430.895 502.732 440.229 483.132 450.362 463.132C460.495 443.132 470.629 423.132 480.762 403.132H457.562V387.132H527.562V403.132H498.362C479.962 439.666 461.829 476.066 443.962 512.332C426.095 548.332 407.962 584.599 389.562 621.132H415.162V637.132H337.962V621.132Z" fill="black"/>
<path d="M535.796 461.932C535.796 451.266 537.796 441.132 541.796 431.532C546.063 421.932 551.663 413.666 558.596 406.732C565.796 399.532 574.063 393.932 583.396 389.932C592.996 385.666 603.263 383.532 614.197 383.532C625.13 383.532 635.396 385.666 644.996 389.932C654.596 393.932 662.997 399.532 670.197 406.732C677.397 413.666 682.996 421.932 686.996 431.532C691.263 441.132 693.396 451.266 693.396 461.932C693.396 472.866 691.263 483.132 686.996 492.732C682.996 502.066 677.397 510.199 670.197 517.132C662.997 524.066 654.596 529.666 644.996 533.932C635.396 537.932 625.13 539.932 614.197 539.932C603.263 539.932 592.996 537.932 583.396 533.932C574.063 529.666 565.796 524.066 558.596 517.132C551.663 510.199 546.063 502.066 541.796 492.732C537.796 483.132 535.796 472.866 535.796 461.932ZM552.196 461.932C552.196 470.466 553.796 478.466 556.996 485.932C560.196 493.399 564.596 499.932 570.197 505.532C575.797 511.132 582.33 515.532 589.796 518.732C597.263 521.932 605.263 523.532 613.796 523.532C622.33 523.532 630.33 521.932 637.796 518.732C645.53 515.532 652.196 511.132 657.796 505.532C663.396 499.932 667.796 493.399 670.996 485.932C674.197 478.466 675.796 470.466 675.796 461.932C675.796 453.399 674.197 445.399 670.996 437.932C667.796 430.466 663.396 423.932 657.796 418.332C652.196 412.732 645.53 408.332 637.796 405.132C630.33 401.666 622.33 399.932 613.796 399.932C605.263 399.932 597.263 401.666 589.796 405.132C582.33 408.332 575.797 412.732 570.197 418.332C564.596 423.932 560.196 430.466 556.996 437.932C553.796 445.399 552.196 453.399 552.196 461.932Z" fill="black"/>
<path d="M865.334 387.132H908.934V403.132H878.934V551.132C878.934 564.199 876.934 575.932 872.934 586.332C868.934 596.999 863.467 606.066 856.534 613.532C849.601 620.999 841.467 626.732 832.134 630.732C823.067 634.732 813.201 636.866 802.534 637.132C791.334 636.866 780.001 634.732 768.534 630.732C757.334 626.732 748.134 620.866 740.934 613.132L752.934 600.732C758.801 607.132 766.267 611.932 775.334 615.132C784.401 618.332 793.334 619.932 802.134 619.932C810.401 619.932 818.134 618.199 825.334 614.732C832.801 611.532 839.201 606.866 844.534 600.732C849.867 594.599 854.134 587.132 857.334 578.332C860.534 569.799 862.134 560.332 862.134 549.932V521.132C862.401 518.199 862.667 515.266 862.934 512.332C863.201 509.132 863.467 506.066 863.734 503.132C861.601 507.932 858.534 512.599 854.534 517.132C850.801 521.399 846.134 525.266 840.534 528.732C835.201 531.932 829.067 534.599 822.134 536.732C815.201 538.866 807.867 539.932 800.134 539.932C789.201 539.932 778.934 537.932 769.334 533.932C759.734 529.666 751.334 524.066 744.134 517.132C737.201 510.199 731.601 502.066 727.334 492.732C723.334 483.132 721.334 472.866 721.334 461.932C721.334 451.266 723.334 441.266 727.334 431.932C731.601 422.332 737.201 414.066 744.134 407.132C751.334 399.932 759.734 394.332 769.334 390.332C778.934 386.066 789.201 383.932 800.134 383.932C807.867 383.932 815.201 385.132 822.134 387.532C829.067 389.666 835.334 392.599 840.934 396.332C846.534 399.799 851.201 403.932 854.934 408.732C858.934 413.266 861.867 417.799 863.734 422.332C863.734 416.466 863.867 410.599 864.134 404.732C864.667 398.866 865.067 392.999 865.334 387.132ZM738.134 461.932C738.134 470.466 739.734 478.466 742.934 485.932C746.134 493.399 750.401 499.932 755.734 505.532C761.334 511.132 767.867 515.532 775.334 518.732C783.067 521.932 791.334 523.532 800.134 523.532C808.934 523.532 817.067 521.932 824.534 518.732C832.001 515.532 838.534 511.132 844.134 505.532C849.734 499.932 854.134 493.399 857.334 485.932C860.534 478.466 862.134 470.466 862.134 461.932C862.134 453.399 860.534 445.399 857.334 437.932C854.134 430.199 849.734 423.532 844.134 417.932C838.534 412.332 832.001 407.932 824.534 404.732C817.067 401.532 808.934 399.932 800.134 399.932C791.334 399.932 783.067 401.532 775.334 404.732C767.867 407.932 761.334 412.332 755.734 417.932C750.401 423.532 746.134 430.199 742.934 437.932C739.734 445.399 738.134 453.399 738.134 461.932Z" fill="black"/>
<path d="M936.959 461.932C936.959 451.266 938.959 441.266 942.959 431.932C947.226 422.332 952.826 414.066 959.759 407.132C966.959 399.932 975.359 394.332 984.959 390.332C994.559 386.066 1004.83 383.932 1015.76 383.932C1023.49 383.932 1030.83 385.132 1037.76 387.532C1044.69 389.666 1050.96 392.599 1056.56 396.332C1062.16 399.799 1066.83 403.932 1070.56 408.732C1074.56 413.266 1077.49 417.799 1079.36 422.332C1079.36 416.466 1079.49 410.599 1079.76 404.732C1080.29 398.866 1080.69 392.999 1080.96 387.132H1094.56V521.132H1124.16V537.132H1079.36V521.132C1079.36 517.932 1079.36 514.866 1079.36 511.932C1079.63 508.732 1079.76 505.666 1079.76 502.732C1077.89 507.266 1074.96 511.799 1070.96 516.332C1067.23 520.866 1062.56 524.866 1056.96 528.332C1051.63 531.799 1045.36 534.599 1038.16 536.732C1031.23 538.866 1023.76 539.932 1015.76 539.932C1004.83 539.932 994.559 537.932 984.959 533.932C975.359 529.666 966.959 524.066 959.759 517.132C952.826 510.199 947.226 502.066 942.959 492.732C938.959 483.132 936.959 472.866 936.959 461.932ZM953.759 461.932C953.759 470.466 955.359 478.466 958.559 485.932C961.759 493.399 966.026 499.932 971.359 505.532C976.959 511.132 983.492 515.532 990.959 518.732C998.692 521.932 1006.96 523.532 1015.76 523.532C1024.56 523.532 1032.69 521.932 1040.16 518.732C1047.63 515.532 1054.16 511.132 1059.76 505.532C1065.36 499.932 1069.76 493.399 1072.96 485.932C1076.16 478.466 1077.76 470.466 1077.76 461.932C1077.76 453.399 1076.16 445.399 1072.96 437.932C1069.76 430.199 1065.36 423.532 1059.76 417.932C1054.16 412.332 1047.63 407.932 1040.16 404.732C1032.69 401.532 1024.56 399.932 1015.76 399.932C1006.96 399.932 998.692 401.532 990.959 404.732C983.492 407.932 976.959 412.332 971.359 417.932C966.026 423.532 961.759 430.199 958.559 437.932C955.359 445.399 953.759 453.399 953.759 461.932Z" fill="black"/>
</svg>
